<svg width="100" height="100" viewBox="0 0 100 100" fill="none" xmlns="http://www.w3.org/2000/svg">
<g clip-path="url(#clip0_47_55)">
<path d="M7.32422 0.570274C6.52344 0.999962 6.44531 1.29293 6.44531 4.0859V6.78121H3.90625C1.25 6.78121 0.390625 6.97652 0.117188 7.66012C-0.0390625 8.08981 -0.0390625 99.0273 0.117188 99.457C0.46875 100.355 -0.46875 100.336 28.9062 100.336H56.4648L56.4062 98.7343L56.3477 97.1132L29.7461 97.0547L3.125 97.0156V53.5586V10.1015H27.3438H51.5625V15.9414V21.8008L52.0312 22.3476L52.5 22.8945L58.4766 22.9531L64.4531 23.0117V29.457V35.9023L66.0742 35.8437L67.6758 35.7851V28.207V20.6484L60.7422 13.7148L53.7891 6.78121H31.6797H9.57031V5.21871V3.65621H40.2344H70.8984V21.332V39.0078H72.5586H74.2188L74.1797 20.1406L74.1211 1.2734L73.5742 0.804649L73.0273 0.335899H40.3711C17.1094 0.355431 7.59766 0.414024 7.32422 0.570274ZM58.5938 16.0586L62.207 19.6718H58.5352H54.8828V16.0586C54.8828 14.0664 54.9023 12.4453 54.9414 12.4453C54.9609 12.4453 56.6016 14.0664 58.5938 16.0586Z" fill="#FF0068"/>
<path d="M8.00781 14.8867V16.5664L9.62891 16.5078L11.2305 16.4492L11.2891 14.8281L11.3477 13.2266H9.66797H8.00781V14.8867Z" fill="#FF0068"/>
<path d="M14.4531 14.8867V16.5664L16.0742 16.5078L17.6758 16.4492L17.7344 14.8281L17.793 13.2266H16.1133H14.4531V14.8867Z" fill="#FF0068"/>
<path d="M20.8984 14.8867V16.5664L22.5195 16.5078L24.1211 16.4492L24.1797 14.8281L24.2383 13.2266H22.5586H20.8984V14.8867Z" fill="#FF0068"/>
<path d="M27.3438 14.8867V16.5469L37.8516 16.5078L48.3398 16.4492V14.8867V13.3242L37.8516 13.2656L27.3438 13.2266V14.8867Z" fill="#FF0068"/>
<path d="M6.44531 27.7773V29.4375L27.4023 29.3984L48.3398 29.3398V27.7773V26.2148L27.4023 26.1562L6.44531 26.1172V27.7773Z" fill="#FF0068"/>
<path d="M6.44531 34.2227V35.8828L27.4023 35.8438L48.3398 35.7852V34.2227V32.6602L27.4023 32.6016L6.44531 32.5625V34.2227Z" fill="#FF0068"/>
<path d="M6.44531 40.668V42.3281L27.4023 42.2891L48.3398 42.2305V40.668V39.1055L27.4023 39.0469L6.44531 39.0078V40.668Z" fill="#FF0068"/>
<path d="M65.7227 39.1638C65.5078 39.2029 64.4336 40.1404 63.3398 41.2537C59.6094 45.0232 55.3516 47.3279 50.332 48.2849C49.4531 48.4607 47.4023 48.6365 45.7617 48.7146C42.9492 48.8318 42.7539 48.8513 42.3438 49.3005L41.8945 49.7888V64.0662C41.8945 79.1443 41.8945 79.0857 42.8125 81.9763C43.9453 85.531 46.543 88.949 49.707 91.0974C51.8164 92.5232 65.6836 100.336 66.0938 100.336C66.5039 100.336 80.3711 92.5232 82.5 91.0974C85.8398 88.8513 88.5352 85.0427 89.6875 80.9021C90.1172 79.3591 90.1367 79.2029 90.1953 64.5349L90.2539 49.7498L89.7852 49.3005C89.375 48.8708 89.1211 48.8318 86.3477 48.7146C78.9258 48.3826 73.8281 46.2341 69.0039 41.3904C66.9922 39.3787 66.4453 39.0076 65.7227 39.1638ZM69.4336 46.156C73.8867 49.6716 80.0586 51.8787 85.5078 51.8982H87.1289L87.0703 65.2185C86.9922 78.1482 86.9727 78.5974 86.582 80.0427C85.6055 83.5388 83.5156 86.488 80.7031 88.4021C79.6875 89.0857 66.2695 96.8201 66.0938 96.8201C65.8008 96.8201 51.7188 88.6169 50.7617 87.8748C49.1602 86.6833 47.6172 84.7693 46.6602 82.8552C45.1758 79.8083 45.2344 80.531 45.1563 65.4138L45.0977 51.8982H46.6797C51.0352 51.8982 56.5039 50.2576 60.3906 47.7966C62.1289 46.6833 64.3359 44.9451 65.4297 43.8123L66.0938 43.1091L67.2852 44.2419C67.9297 44.8669 68.9063 45.7263 69.4336 46.156Z" fill="#FF0068"/>
<path d="M62.5194 53.9491C59.8827 54.5351 58.242 55.2382 56.1522 56.6445C52.8124 58.9101 50.3124 62.3281 49.0819 66.2929C48.6131 67.8554 48.5545 68.3046 48.5545 71.2343C48.535 74.0273 48.5936 74.6523 48.9842 75.9804C50.703 81.957 55.2147 86.5077 61.2303 88.3437C62.8124 88.832 63.3006 88.871 66.0155 88.8906C68.5936 88.9101 69.2577 88.832 70.5663 88.4609C76.8944 86.6445 81.4256 82.1132 83.242 75.7851C83.6131 74.4765 83.6913 73.8124 83.6717 71.2343C83.6522 68.5195 83.6131 68.0312 83.1249 66.4491C81.3085 60.4921 76.7577 55.9413 70.8592 54.2226C68.9842 53.6757 64.3944 53.5195 62.5194 53.9491ZM68.9061 57.0937C72.3827 57.8163 75.1561 59.5156 77.4022 62.3085C79.453 64.8671 80.4881 67.8359 80.5077 71.2343C80.5272 73.832 80.1366 75.4726 78.9647 77.8749C78.1835 79.4374 77.7733 80.0038 76.2889 81.5077C74.785 82.9921 74.2186 83.4023 72.6561 84.1835C70.2538 85.3554 68.6131 85.746 66.0155 85.7265C56.328 85.6874 49.4725 76.4882 52.1874 67.2109C54.2967 60.082 61.6795 55.5898 68.9061 57.0937Z" fill="#FF0068"/>
<path d="M69.1602 63.4609C69.0625 63.8125 68.1641 66.7812 67.1875 70.0625C66.1914 73.3437 65.3516 76.0586 65.3125 76.0976C65.2539 76.1562 64.5898 75.5703 63.8086 74.789L62.3828 73.3828L61.2695 74.5156L60.1562 75.6484L62.8516 78.3242C67.0703 82.5039 66.7773 82.7578 69.9219 72.2109C71.2305 67.8555 72.3242 64.164 72.3828 63.9883C72.4414 63.7539 72.1484 63.5781 71.0156 63.2656C70.2148 63.0312 69.5117 62.8359 69.4727 62.8359C69.4141 62.8359 69.2773 63.1289 69.1602 63.4609Z" fill="#FF0068"/>
<path d="M6.44531 47.1133V48.7734H22.5586H38.6719V47.1133V45.4531H22.5586H6.44531V47.1133Z" fill="#FF0068"/>
<path d="M6.44531 53.5586V55.2188H22.5586H38.6719V53.5586V51.8984H22.5586H6.44531V53.5586Z" fill="#FF0068"/>
<path d="M6.44531 60.0039V61.6641H22.5586H38.6719V60.0039V58.3438H22.5586H6.44531V60.0039Z" fill="#FF0068"/>
<path d="M6.44531 79.3398V81H22.5586H38.6719V79.3398V77.6797H22.5586H6.44531V79.3398Z" fill="#FF0068"/>
<path d="M6.44531 85.7852V87.4453H22.5586H38.6719V85.7852V84.125H22.5586H6.44531V85.7852Z" fill="#FF0068"/>
<path d="M6.44531 92.2305V93.8906H22.5586H38.6719V92.2305V90.5703H22.5586H6.44531V92.2305Z" fill="#FF0068"/>
</g>
<defs>
<clipPath id="clip0_47_55">
<rect width="100" height="100" fill="white"/>
</clipPath>
</defs>
</svg>
