<svg width="104" height="108" viewBox="0 0 104 108" fill="none" xmlns="http://www.w3.org/2000/svg">
<g filter="url(#filter0_d_47_105)">
<path d="M10.4961 0.273438C8.48438 0.78125 6.58984 2.14844 5.63281 3.80859C4.61719 5.52734 4.53906 6.30859 4.53906 14.2969V21.6797H10.7891H17.0391V37.5V53.3203H10.7891H4.53906V60.6055C4.53906 66.4648 4.59766 68.1055 4.83203 69.0234C5.61328 72.0312 8.15234 74.2969 11.3164 74.8047C11.9805 74.9219 19.6562 75 29.5977 75H46.7266V73.5352V72.0703H32.6641C24.7734 72.0703 18.6016 71.9922 18.6016 71.8945C18.6016 71.7969 18.8164 71.3477 19.0703 70.8789C19.3242 70.4102 19.6367 69.5312 19.7734 68.9453C19.9297 68.1445 19.9688 59.707 19.9297 36.7188L19.8711 5.56641L19.4219 4.58984C19.1875 4.0625 18.8359 3.47656 18.6602 3.28125C18.3477 2.92969 19.1094 2.92969 39.5195 2.96875L60.6914 3.02734L61.4727 3.45703C62.4688 3.98438 63.2109 4.76562 63.6602 5.76172C63.9922 6.48438 64.0117 7.46094 64.0703 18.0078L64.1289 29.4922H65.5742H67.0391V18.6914C67.0391 12.7734 66.9609 7.36328 66.8633 6.69922C66.5117 4.35547 65.1055 2.1875 63.2305 1.09375C61.3164 -0.0390625 62.2734 0 35.7891 0.0195312C17.1562 0.0390625 11.2383 0.0976562 10.4961 0.273438ZM14.2266 3.30078C14.6562 3.49609 15.3398 3.98438 15.7305 4.39453C16.9609 5.66406 17.0391 6.17188 17.0391 12.832V18.75H12.2539H7.46875V12.7344C7.46875 6.85547 7.48828 6.71875 7.9375 5.76172C8.81641 3.86719 10.2422 2.92969 12.2539 2.92969C12.9766 2.92969 13.7383 3.08594 14.2266 3.30078ZM17.0391 62.1484C17.0391 67.9492 17.0195 68.0859 16.5703 69.0625C14.8711 72.6953 9.91016 72.8125 7.99609 69.2383C7.58594 68.4961 7.56641 68.1836 7.50781 62.3438L7.44922 56.25H12.2344H17.0391V62.1484Z" fill="#FF0068"/>
<path d="M81.2969 6.93359V7.8125H79.7344H78.1719V11.6211V15.4297H81.2969H84.4219V16.3086V17.1875H81.2969H78.1719V18.6523V20.1172H79.7344H81.2969V20.8984V21.6797H82.7617H84.2266V20.8984V20.1172H85.7891H87.3516V16.3086V12.5H84.2266H81.1016V11.6211V10.7422H84.3242H87.5469V9.27734V7.8125H85.8867H84.2266V6.93359V6.05469H82.7617H81.2969V6.93359Z" fill="#FF0068"/>
<path d="M24.8516 10.8398V12.3047H35.7891H46.7266V10.8398V9.375H35.7891H24.8516V10.8398Z" fill="#FF0068"/>
<path d="M49.8516 13.9648V18.5547H54.5391H59.2266V13.9648V9.375H54.5391H49.8516V13.9648ZM56.1016 13.9648V15.625H54.5391H52.9766V13.9648V12.3047H54.5391H56.1016V13.9648Z" fill="#FF0068"/>
<path d="M29.5391 17.0898V18.5547H38.1328H46.7266V17.0898V15.625H38.1328H29.5391V17.0898Z" fill="#FF0068"/>
<path d="M73.1914 29.5312L63.8164 34.2188L67.8203 36.2305L71.8242 38.2422L71.9219 42.3047C72.0195 46.1328 72.0391 46.4258 72.4492 46.9922C72.7031 47.3242 73.2305 47.7734 73.6211 47.9688C74.3047 48.3203 74.9492 48.3398 82.8594 48.3398C91.0234 48.3398 91.375 48.3203 92.0195 47.9492C92.3906 47.7344 92.8984 47.168 93.1523 46.6992C93.582 45.8789 93.6016 45.6445 93.6016 42.0703V38.2812L95.1641 37.5C96.0234 37.0703 96.7656 36.7188 96.8242 36.7188C96.8828 36.7188 96.9219 38.6133 96.9219 40.918V45.1172H98.3867H99.8516V39.1992V33.3008L91.3555 29.043C86.6875 26.7188 82.8008 24.8047 82.7031 24.8242C82.625 24.8242 78.3477 26.9336 73.1914 29.5312ZM89.0703 31.2109L95.1641 34.2773L89.0117 37.3633L82.8594 40.4297L76.668 37.3242L70.457 34.2383L76.5117 31.1914C79.8516 29.5117 82.6641 28.1445 82.7617 28.1445C82.8789 28.1445 85.7109 29.5312 89.0703 31.2109ZM78.9531 41.7773L82.7617 43.7109L86.6094 41.7773C88.7383 40.7031 90.5156 39.8438 90.5742 39.8438C90.6328 39.8438 90.6719 41.0742 90.6719 42.5781V45.3125H82.7617H74.8516V42.5781C74.8516 41.0742 74.9102 39.8438 75.0078 39.8633C75.0859 39.8633 76.8633 40.7227 78.9531 41.7773Z" fill="#FF0068"/>
<path d="M24.8516 26.4648V27.9297H35.7891H46.7266V26.4648V25H35.7891H24.8516V26.4648Z" fill="#FF0068"/>
<path d="M49.9883 25.1172C49.9102 25.1953 49.8516 27.2656 49.8516 29.7266V34.1797H54.5391H59.2266L59.1875 29.6289L59.1289 25.0977L54.6172 25.0391C52.1367 25.0195 50.0664 25.0586 49.9883 25.1172ZM56.1016 29.5898V31.25H54.5391H52.9766V29.5898V27.9297H54.5391H56.1016V29.5898Z" fill="#FF0068"/>
<path d="M31.1016 32.7148V34.1797H32.6641H34.2266V32.7148V31.25H32.6641H31.1016V32.7148Z" fill="#FF0068"/>
<path d="M37.4883 31.3867C37.4102 31.4453 37.3516 32.1094 37.3516 32.8516V34.1797H38.9141H40.4766V32.7148V31.25H39.0508C38.25 31.25 37.5469 31.3086 37.4883 31.3867Z" fill="#FF0068"/>
<path d="M43.7383 31.3867C43.6602 31.4453 43.6016 32.1094 43.6016 32.8516V34.1797H45.1641H46.7266V32.7148V31.25H45.3008C44.5 31.25 43.7969 31.3086 43.7383 31.3867Z" fill="#FF0068"/>
<path d="M64.1094 43.6523V48.457L65.5352 48.3984L66.9414 48.3398V43.6523V38.9648L65.5352 38.9062L64.1094 38.8477V43.6523Z" fill="#FF0068"/>
<path d="M24.9883 40.7617C24.9102 40.8203 24.8516 41.4844 24.8516 42.2266V43.5547H35.7891H46.7266V42.0898V40.625H35.9258C29.9688 40.625 25.0469 40.6836 24.9883 40.7617Z" fill="#FF0068"/>
<path d="M49.9492 40.8789C49.8906 41.0156 49.8711 43.1055 49.8906 45.5078L49.9492 49.9023H54.5391H59.1289V45.3125V40.7227L54.5781 40.6641C51.0039 40.625 50.0078 40.6641 49.9492 40.8789ZM56.1016 45.2148V46.875H54.5391H52.9766V45.2148V43.5547H54.5391H56.1016V45.2148Z" fill="#FF0068"/>
<path d="M29.617 47.1484C29.5584 47.2852 29.5389 47.9688 29.5779 48.6523L29.6365 49.9023L38.1912 49.9609L46.7264 50V48.4375V46.875H38.2303C31.2576 46.875 29.6951 46.9141 29.617 47.1484Z" fill="#FF0068"/>
<path d="M49.9883 51.6992C49.9102 51.7578 49.8516 62.6562 49.8516 75.918V100H67.0391H84.2266L84.1875 75.8203L84.1289 51.6602L67.1172 51.6016C57.7617 51.582 50.0469 51.6211 49.9883 51.6992ZM81.2969 75.8789V97.0703H67.1367H52.9766V75.8789V54.6875H67.1367H81.2969V75.8789Z" fill="#FF0068"/>
<path d="M56.1406 63.3203L56.1992 68.6523L67.0977 68.7109L77.9766 68.75V63.3789V58.0078H67.0391H56.1016L56.1406 63.3203ZM75.0078 63.3203L74.9492 65.7227L67.0977 65.7812L59.2266 65.8203V63.3789V60.9375H67.1367H75.0664L75.0078 63.3203Z" fill="#FF0068"/>
<path d="M56.1406 76.6016L56.1992 81.1523L60.8477 81.2109L65.4766 81.25V76.6602V72.0703H60.7891H56.1016L56.1406 76.6016ZM62.5078 76.6016L62.4492 78.2227L60.8477 78.2812L59.2266 78.3398V76.6602V75H60.8867H62.5664L62.5078 76.6016Z" fill="#FF0068"/>
<path d="M68.7969 76.6602V81.25H73.3867H77.9766V76.6602V72.0703H73.3867H68.7969V76.6602ZM75.0469 76.6602V78.3203H73.3867H71.7266V76.6602V75H73.3867H75.0469V76.6602Z" fill="#FF0068"/>
<path d="M56.1406 89.1016L56.1992 93.6523L60.8477 93.7109L65.4766 93.75V89.1602V84.5703H60.7891H56.1016L56.1406 89.1016ZM62.5469 89.1602V90.8203H60.8867H59.2266V89.1602V87.5H60.8867H62.5469V89.1602Z" fill="#FF0068"/>
<path d="M68.7969 89.1602V93.75H73.3867H77.9766V89.1602V84.5703H73.3867H68.7969V89.1602ZM75.0469 89.1602V90.8203H73.3867H71.7266V89.1602V87.5H73.3867H75.0469V89.1602Z" fill="#FF0068"/>
<path d="M24.8906 57.8516L24.9492 59.2773L35.8477 59.3359L46.7266 59.375V57.9102V56.4453H35.7891H24.832L24.8906 57.8516Z" fill="#FF0068"/>
<path d="M29.5781 64.1016L29.6367 65.5273L38.1914 65.5859L46.7266 65.625V64.1602V62.6953H38.1328H29.5195L29.5781 64.1016Z" fill="#FF0068"/>
</g>
<defs>
<filter id="filter0_d_47_105" x="-2" y="0" width="108" height="108" filterUnits="userSpaceOnUse" color-interpolation-filters="sRGB">
<feFlood flood-opacity="0" result="BackgroundImageFix"/>
<feColorMatrix in="SourceAlpha" type="matrix" values="0 0 0 0 0 0 0 0 0 0 0 0 0 0 0 0 0 0 127 0" result="hardAlpha"/>
<feOffset dy="4"/>
<feGaussianBlur stdDeviation="2"/>
<feComposite in2="hardAlpha" operator="out"/>
<feColorMatrix type="matrix" values="0 0 0 0 0 0 0 0 0 0 0 0 0 0 0 0 0 0 0.25 0"/>
<feBlend mode="normal" in2="BackgroundImageFix" result="effect1_dropShadow_47_105"/>
<feBlend mode="normal" in="SourceGraphic" in2="effect1_dropShadow_47_105" result="shape"/>
</filter>
</defs>
</svg>
