<svg width="70" height="70" viewBox="0 0 70 70" fill="none" xmlns="http://www.w3.org/2000/svg">
<g clip-path="url(#clip0_54_16)">
<path d="M59.2677 0.150364C58.8439 0.382786 54.1408 5.08591 53.922 5.49607C53.7716 5.78318 53.7306 6.60349 53.7306 9.46091V13.0566L41.3439 25.4297C34.5353 32.2383 28.7794 38.0761 28.5607 38.4043C27.1798 40.5234 29.4767 42.8203 31.5959 41.4394C31.924 41.2207 37.7619 35.4648 44.5705 28.6562L56.9435 16.2695H60.5392C63.3966 16.2695 64.2169 16.2285 64.5041 16.0781C64.9416 15.8457 69.631 11.1289 69.8498 10.7051C70.2189 9.96677 69.7951 8.87302 69.0021 8.55857C68.7697 8.44919 67.2384 8.14841 65.6251 7.8613C64.0119 7.58786 62.672 7.35544 62.6584 7.34177C62.6447 7.3281 62.4123 5.98825 62.1388 4.37497C61.8517 2.76169 61.5509 1.23044 61.4416 0.99802C61.1271 0.205051 59.9923 -0.232449 59.2677 0.150364Z" fill="#FF0068"/>
<path d="M27.3438 9.66606C16.7481 10.7461 7.58797 17.1719 2.99422 26.7286C-2.55656 38.2813 -0.204995 52.0215 8.8868 61.1133C17.9786 70.2051 31.7188 72.5567 43.2716 67.0059C51.0919 63.2461 56.8888 56.3965 59.2813 48.084C59.5274 47.1954 59.8692 45.7598 60.0333 44.8711C60.4024 42.793 60.5391 38.7188 60.2931 36.668C59.7325 31.8282 58.1329 27.2891 55.6583 23.4746C55.1251 22.668 54.6466 22.0118 54.5919 22.0118C54.5235 22.0118 53.2247 23.2696 51.6798 24.8145L48.8907 27.6036L49.2052 28.1231C50.3673 30.0508 51.5567 33.086 52.0079 35.3145C53.129 40.7422 52.0899 46.6485 49.2052 51.2969C46.3614 55.877 42.2462 59.1582 37.1876 60.8536C34.9317 61.6055 32.7989 61.9473 30.2696 61.9473C24.1856 61.9473 18.8673 59.7461 14.5606 55.4395C10.254 51.1329 8.05282 45.8145 8.05282 39.7305C8.05282 31.9375 11.9903 24.9512 18.7169 20.7813C23.3516 17.9102 29.2716 16.8711 34.6856 17.9922C36.9142 18.4434 39.9493 19.6329 41.877 20.795L42.3966 21.1094L45.1856 18.3204C46.7306 16.7754 47.9884 15.4766 47.9884 15.4082C47.9884 15.2032 45.0352 13.3711 43.3946 12.5782C40.5099 11.17 37.3243 10.2266 33.8517 9.77543C32.4981 9.58403 28.67 9.52934 27.3438 9.66606Z" fill="#FF0068"/>
<path d="M27.6174 24.1446C24.4318 24.7188 21.6428 26.127 19.3596 28.3008C18.0608 29.545 17.3361 30.461 16.4475 32.0196C14.8615 34.7813 14.1779 38.0625 14.5061 41.3165C14.7111 43.3672 15.1486 44.8438 16.133 46.8399C17.801 50.1758 20.3986 52.6778 23.8576 54.2364C28.2873 56.2461 33.7561 55.9727 37.9807 53.5528C39.5393 52.6641 40.4553 51.9395 41.6994 50.6407C45.6916 46.4571 47.0861 40.3457 45.3088 34.9317C44.9943 34.002 44.3928 32.6075 44.2014 32.4024C44.174 32.375 42.7795 33.7149 41.0979 35.3965L38.0354 38.459V39.7715C38.0354 44.1192 34.6037 47.5645 30.2561 47.5782C28.0412 47.5782 26.3322 46.8672 24.7326 45.2676C23.133 43.668 22.4221 41.959 22.4221 39.7442C22.4358 36.3262 24.5549 33.4141 27.8225 32.3204C28.6975 32.0332 29.176 31.9649 30.2287 31.9649H31.5412L34.6037 28.9024C36.2854 27.2207 37.6252 25.8262 37.5979 25.7989C37.5569 25.7579 37.2287 25.5801 36.8459 25.4024C34.344 24.1582 30.4611 23.625 27.6174 24.1446Z" fill="#FF0068"/>
</g>
<defs>
<clipPath id="clip0_54_16">
<rect width="70" height="70" fill="white"/>
</clipPath>
</defs>
</svg>
