<svg width="100" height="100" viewBox="0 0 100 100" fill="none" xmlns="http://www.w3.org/2000/svg">
<g clip-path="url(#clip0_47_95)">
<path d="M26.5626 4.3946C17.5196 6.40632 11.2892 14.4532 11.797 23.4376C12.0509 28.1641 13.6915 31.9923 16.8556 35.293C19.6095 38.1641 22.9493 40.0196 26.6603 40.7423C27.6368 40.9376 28.4376 41.1133 28.4767 41.1329C28.5157 41.1524 28.3009 41.543 28.0275 41.9923C26.3868 44.5899 24.9415 48.3985 24.297 51.8555C23.9454 53.711 23.8282 58.2032 24.0821 59.7657L24.2384 60.6641L22.0314 61.0938C19.6876 61.543 19.1407 61.8751 19.1407 62.793C19.1407 63.4571 19.8634 64.2579 20.4689 64.2579C20.7618 64.2579 22.6173 63.9454 24.6095 63.5548C29.2384 62.6759 30.3907 62.5782 32.1876 62.9688C34.7853 63.5157 35.9181 64.2384 38.8673 67.1876C42.1681 70.4884 43.0665 71.1719 48.7892 74.5313C51.3282 76.0157 53.7696 77.5587 54.1798 77.9493C54.8829 78.5938 54.961 78.7501 55.0392 79.8634C55.1173 80.918 55.0587 81.1524 54.6095 81.836C53.9259 82.8907 53.1251 83.2618 51.8751 83.1446C51.0353 83.0665 49.961 82.5391 45.0196 79.7852C41.797 77.9884 38.672 76.3477 38.086 76.1329C37.4415 75.8985 36.2696 75.7032 35.1173 75.6446C33.2814 75.5469 33.2228 75.5469 32.7345 76.0352C32.09 76.6798 32.09 77.4219 32.715 78.0274C33.1251 78.4571 33.3595 78.5157 34.5314 78.5157C35.254 78.5157 36.3087 78.6524 36.836 78.8087C37.3634 78.9649 40.547 80.6251 43.9259 82.5001C48.2423 84.9024 50.3126 85.9571 50.9181 86.0548C53.4767 86.4259 55.8204 85.4298 57.1095 83.379C57.4025 82.9298 57.715 82.8126 59.7267 82.4219C60.9767 82.168 62.2071 81.8946 62.422 81.8165C62.6564 81.7384 65.8204 79.4532 69.4532 76.7188L76.0743 71.7774H77.3048C78.4767 71.7774 78.5743 71.8165 79.1993 72.5001C80.0196 73.379 80.2345 74.3946 79.8634 75.4688C79.6681 76.0548 79.1212 76.6602 77.8321 77.793C75.9767 79.4141 75.5275 80.0782 75.8009 80.8009C76.0157 81.4063 76.8556 81.8946 77.4025 81.7579C77.9689 81.6212 81.1915 78.8673 81.8556 77.9493C83.4962 75.7227 83.34 72.7344 81.465 70.6641C80.2931 69.3555 79.004 68.7501 77.3634 68.7501C76.4454 68.7501 76.1525 68.6915 76.2306 68.5157C77.3439 65.9376 77.6759 65.0001 78.1642 63.1055C78.5743 61.4454 78.7696 60.1563 78.8478 58.3594L78.965 55.879L80.4493 55.9962C81.2696 56.0548 82.715 55.9962 83.672 55.879C89.9806 55.0391 95.2931 51.2305 98.047 45.6055C103.164 35.1954 97.6564 22.8907 86.4259 19.629C84.297 19.004 80.9181 18.7891 78.711 19.1212C73.9845 19.8633 69.3946 22.5782 66.6212 26.3282C65.6056 27.7149 64.1993 30.3321 63.9454 31.3087C63.8868 31.6212 63.7306 31.8165 63.5939 31.7579C58.9845 29.6485 53.6329 28.6133 49.4532 29.0235C47.9493 29.1798 47.6564 29.1798 47.754 28.9454C48.6134 26.6798 49.0235 22.6954 48.6329 20.0977C48.3595 18.1446 47.6173 15.7423 47.1485 15.2149C46.4454 14.4337 44.7267 15.0001 44.7267 16.0157C44.7267 16.2305 44.961 17.168 45.2345 18.1055C46.797 23.4571 45.4689 29.1407 41.7384 33.1446C39.6681 35.3516 37.4415 36.7188 34.4337 37.6173C32.9689 38.0469 32.3439 38.1251 30.2735 38.1251C28.2032 38.1251 27.5782 38.0469 26.1134 37.6173C21.6603 36.2891 18.34 33.5352 16.4064 29.6094C15.0196 26.8165 14.7462 25.6251 14.7657 22.5587C14.7657 19.5704 15.0587 18.3008 16.3087 15.7227C18.8868 10.3712 24.2579 7.03132 30.2735 7.03132C34.3556 7.03132 37.5392 8.24226 40.7814 11.0157C41.9142 11.9923 42.5587 12.129 43.3204 11.6016C43.6329 11.3868 43.7501 11.1133 43.7501 10.5665C43.7501 9.92194 43.6134 9.68757 42.8321 8.96491C40.7032 6.99226 38.2814 5.62507 35.4103 4.76569C33.965 4.33601 33.2423 4.23835 30.7618 4.17976C28.6915 4.12116 27.461 4.19929 26.5626 4.3946ZM85.4493 22.3438C87.1681 22.8126 89.961 24.2579 91.3673 25.4102C93.7501 27.3829 95.84 30.6446 96.5821 33.5743C97.6368 37.6954 96.8556 42.4024 94.5314 45.9376C91.4064 50.7032 85.6446 53.5548 80.1759 53.0274L78.7501 52.9102L78.6329 52.1876C78.5743 51.7969 78.4767 51.1915 78.3985 50.8594L78.2814 50.2344L79.1212 50.4102C81.6798 50.8985 84.7657 50.4298 87.3048 49.1993C89.6095 48.0665 91.9728 45.7032 93.1251 43.418C95.215 39.2188 94.961 34.2383 92.4806 30.3516C91.0743 28.1641 88.6525 26.1915 86.172 25.2149C84.8829 24.7071 84.5509 24.7071 83.9064 25.2149C83.3009 25.7032 83.2032 26.7188 83.7501 27.1876C83.9259 27.3438 84.8243 27.8321 85.7423 28.2813C90.0196 30.3321 92.3048 34.8633 91.4064 39.5118C90.6837 43.2423 87.6173 46.3868 83.7306 47.4024C82.2657 47.7735 79.6681 47.6563 78.2814 47.168C77.3634 46.8555 77.3243 46.7969 76.3868 44.8633C75.215 42.4415 74.1798 40.8204 72.5392 38.8282C71.1329 37.1485 71.0743 36.8555 71.5821 34.8633C72.3634 31.8751 74.2775 29.6485 77.2462 28.2227C79.3556 27.2071 79.7071 26.7774 79.3165 25.8008C79.1798 25.4883 78.8087 25.1173 78.4962 25.0001C78.0079 24.7852 77.754 24.8243 76.7189 25.2149C73.2032 26.5235 70.254 29.6094 69.0235 33.2227C68.7501 34.004 68.5157 34.6876 68.4767 34.7266C68.4376 34.7657 67.9493 34.4727 67.3829 34.0626C66.211 33.2227 66.211 33.2032 67.3829 30.7618C69.5314 26.3087 73.5353 23.1446 78.3009 22.1485C79.9415 21.8165 83.8478 21.9141 85.4493 22.3438ZM56.0157 32.3243C63.379 33.7305 69.7462 38.4571 73.2228 45.1173C75.1564 48.8087 75.9767 52.2266 75.9767 56.5626C75.9767 62.1876 74.3556 66.9923 70.9181 71.543C70.4493 72.168 68.711 73.6134 65.8009 75.8009L61.4064 79.1016L59.8439 79.3946C59.004 79.5509 58.2423 79.6876 58.1837 79.6876C58.1056 79.6876 58.0079 79.336 57.9298 78.8868C57.754 77.793 57.1485 76.6798 56.2696 75.8204C55.8595 75.4298 53.34 73.8282 50.7032 72.2657C44.8243 68.8087 43.9064 68.1251 40.879 65.0391L38.4767 62.5977V57.0118V51.4063L39.961 51.3282C41.2306 51.2696 41.504 51.1915 41.8165 50.8008C42.3048 50.2149 42.2853 49.3165 41.797 48.8282C41.4259 48.4571 41.1525 48.4376 37.0704 48.4376C32.1876 48.4376 32.0314 48.4766 32.0314 49.8048C32.0314 50.879 32.5392 51.2501 34.1993 51.3282L35.547 51.4063V56.1524V60.8985L34.0821 60.4298C32.3439 59.8829 29.8439 59.6485 28.2618 59.9219C27.5001 60.0391 27.09 60.0391 27.0118 59.9024C26.7384 59.4532 26.8946 53.8087 27.2071 52.1094C27.8907 48.6329 29.3556 45.1173 31.2306 42.4415L32.1681 41.1133L33.9259 40.7618C36.2306 40.293 38.4962 39.336 40.4884 38.0079C42.1095 36.9337 44.922 34.2188 45.6056 33.0665C45.9376 32.5001 46.0743 32.4415 47.6368 32.2266C48.5548 32.0899 49.4532 31.9727 49.6095 31.9337C50.2345 31.7774 54.4923 32.0313 56.0157 32.3243Z" fill="#FF0068"/>
<path d="M80.5274 29.5898C80.2735 29.7656 80.0391 30.2148 79.961 30.625C79.8633 31.1133 79.5899 31.543 79.1016 31.9727C77.7149 33.1641 77.3829 34.707 78.1446 36.2891C78.6133 37.2461 79.4727 37.8711 81.0352 38.418C81.6212 38.6133 82.2071 38.9648 82.3633 39.1992C82.6368 39.6094 82.6368 39.707 82.3438 40.1367C81.9532 40.7227 81.0157 40.7812 79.7462 40.3125C78.6915 39.9023 78.0274 40.0781 77.6172 40.8398C77.1485 41.7773 77.5391 42.5 78.8282 43.1055C79.629 43.4766 79.8633 43.6719 79.9415 44.1406C80.0977 44.8828 80.7227 45.5078 81.3282 45.5078C82.0899 45.5078 82.8126 44.8047 82.8126 44.0234C82.8126 43.6523 82.9102 43.3594 83.0079 43.3594C83.1251 43.3594 83.6133 42.9883 84.0821 42.5586C84.7071 41.9727 85.0391 41.4648 85.254 40.7617C85.918 38.5352 84.8243 36.6992 82.2852 35.7422C81.0157 35.2734 80.6641 35.0391 80.6641 34.6484C80.6641 34.1211 81.504 33.9258 82.3243 34.2578C83.3399 34.6875 83.8477 34.6484 84.336 34.1211C85.1758 33.2227 84.7266 31.9727 83.3594 31.4648C82.9297 31.3086 82.8126 31.1328 82.8126 30.6836C82.8126 30.293 82.6368 29.9805 82.3047 29.707C81.6797 29.2188 81.1133 29.1797 80.5274 29.5898Z" fill="#FF0068"/>
<path d="M48.2619 48.9063C47.9884 49.1992 46.7384 52.207 45.1759 56.2695C42.7931 62.5586 42.5783 63.2031 42.7931 63.7109C43.2033 64.707 44.2775 64.9609 45.0392 64.2383C45.2736 64.0039 45.6838 63.2617 45.9181 62.5781L46.3673 61.3281L49.4728 61.3672L52.5978 61.4258L53.0666 62.6953C53.5744 64.0625 54.0822 64.6484 54.7853 64.6484C55.4494 64.6484 56.2502 63.9258 56.2502 63.3398C56.2502 63.0469 55.0978 59.7852 53.7111 56.0742C51.8361 51.1133 51.0353 49.1992 50.6642 48.8672C49.9806 48.2617 48.8478 48.2813 48.2619 48.9063ZM50.4689 55.8203C50.9572 57.1484 51.3673 58.2617 51.3673 58.3008C51.3673 58.3594 50.4884 58.3984 49.4338 58.3984H47.5002L48.4572 55.918C48.9845 54.5508 49.4142 53.3984 49.4142 53.3398C49.4142 53.0664 49.6681 53.6719 50.4689 55.8203Z" fill="#FF0068"/>
<path d="M59.0041 48.9454C58.301 49.8243 58.301 49.8243 60.8596 53.4571L62.6564 56.0157L60.3322 59.336C57.7736 62.9883 57.5783 63.5157 58.5158 64.2383C59.0432 64.668 59.4924 64.7461 60.0588 64.5313C60.215 64.4532 61.2502 63.1446 62.3244 61.6016C63.3986 60.0586 64.3557 58.7891 64.4533 58.7891C64.551 58.7891 65.508 60.0586 66.5822 61.6016C67.6564 63.1446 68.6916 64.4532 68.8478 64.5313C69.4143 64.7461 69.8635 64.668 70.3908 64.2383C71.3283 63.4961 71.133 62.9883 68.5744 59.336L66.2502 56.0352L68.1838 53.2813C69.258 51.7579 70.176 50.3126 70.2541 50.0586C70.4299 49.336 69.7463 48.5547 68.9064 48.4766C68.0471 48.3985 67.9885 48.4571 66.0939 51.1719C65.2736 52.3633 64.5314 53.3204 64.4533 53.3204C64.3947 53.3204 63.6721 52.3829 62.8713 51.2305C62.0705 50.0782 61.2697 48.9844 61.0939 48.7891C60.5471 48.2422 59.4924 48.3399 59.0041 48.9454Z" fill="#FF0068"/>
<path d="M28.3593 9.5898C25.5858 10.0195 23.1054 11.289 20.996 13.3789C18.5155 15.8593 17.3827 18.4375 17.2264 21.8945C17.1679 23.4179 17.2264 24.375 17.4804 25.4687C18.4374 29.8437 21.9335 33.6718 26.2499 35.0976C28.4569 35.8203 31.8163 35.8593 33.9843 35.1953C36.2499 34.4921 37.7929 33.5351 39.5702 31.7578C42.3241 28.9648 43.496 25.9179 43.3202 21.8945C43.164 18.3984 42.0311 15.8984 39.453 13.2617C38.3007 12.1093 37.5975 11.6015 36.328 10.9765C33.6718 9.66793 30.9569 9.19918 28.3593 9.5898ZM33.496 12.9296C35.1171 13.457 36.2304 14.1601 37.4999 15.4296C42.285 20.2343 41.035 28.3789 35.0194 31.6015C29.1796 34.707 22.0507 31.4648 20.3905 24.9414C19.9608 23.3203 20.1171 20.625 20.703 19.082C21.9921 15.664 25.2147 13.0273 28.7304 12.5C30.1561 12.2851 32.0702 12.4609 33.496 12.9296Z" fill="#FF0068"/>
<path d="M29.3555 14.7461C29.1016 14.9219 28.8672 15.3711 28.7891 15.7812C28.6914 16.2891 28.418 16.6992 27.8711 17.168C25.5078 19.2187 26.3672 22.2461 29.6875 23.457C30.3906 23.7109 31.0156 24.082 31.1914 24.3555C31.4648 24.7656 31.4648 24.8437 31.1719 25.293C30.918 25.6836 30.7031 25.7812 30.0195 25.7812C29.5703 25.7617 28.9844 25.6445 28.7109 25.4883C27.5781 24.8437 26.3086 25.4102 26.3086 26.543C26.3086 27.3242 26.9727 28.0664 27.9688 28.3594C28.5547 28.5352 28.7109 28.6719 28.7109 29.043C28.7109 29.6094 29.707 30.6641 30.2344 30.6641C30.918 30.6641 31.6406 29.9219 31.6406 29.1992C31.6406 28.7109 31.7578 28.4766 32.0898 28.3008C33.0078 27.832 33.8086 26.8555 34.1016 25.8203C34.7461 23.6328 33.6133 21.7773 31.0938 20.8398C29.5898 20.293 29.2383 19.9023 29.7461 19.3945C30.0391 19.1016 30.1758 19.082 30.8984 19.3164C32.4414 19.7656 32.5195 19.7656 33.0664 19.3359C33.4375 19.043 33.5938 18.7305 33.5938 18.3398C33.5938 17.4805 33.3203 17.1094 32.4414 16.6992C31.7773 16.4062 31.6406 16.25 31.6406 15.7812C31.6406 14.668 30.3125 14.0625 29.3555 14.7461Z" fill="#FF0068"/>
<path d="M6.93359 63.9062C1.48438 64.9414 0.839844 65.1172 0.449219 65.5469C0.195312 65.8203 0 66.25 0 66.5234C0 67.0117 0.78125 67.9688 1.17188 67.9688C1.38672 67.9688 3.57422 67.5586 11.0156 66.1523C14.1992 65.5469 14.5703 65.4297 15 64.9414C15.8398 63.9648 15.0977 62.6758 13.6914 62.7148C13.3008 62.7344 10.2734 63.2617 6.93359 63.9062Z" fill="#FF0068"/>
<path d="M15.0194 81.0547C14.0233 81.2109 2.3436 84.4727 1.07407 84.9609C0.761571 85.0781 0.410008 85.3125 0.273289 85.5078C-0.410304 86.3867 0.292821 87.6953 1.44516 87.6953C1.79673 87.6953 4.8436 86.8945 8.22251 85.918C11.6014 84.9414 14.8827 84.0625 15.5272 83.9648C17.0506 83.75 18.9256 84.043 20.41 84.7461C21.0545 85.0586 24.7264 87.3242 28.5545 89.8047C32.4022 92.2852 35.9764 94.5508 36.5233 94.8242C39.2186 96.1914 41.7381 96.1914 48.6327 94.8242C51.1522 94.3359 55.8983 93.3984 59.1795 92.7539C63.0077 92.0117 65.5077 91.4062 66.1913 91.0938C67.8319 90.3516 73.0077 85.9961 73.3202 85.0977C73.5936 84.3359 72.9491 83.5156 72.0116 83.4375C71.2889 83.3789 71.2498 83.3984 67.4803 86.6211C65.9959 87.8906 65.2928 88.3594 64.4725 88.6328C64.1014 88.7695 59.0624 89.7852 53.2616 90.918C41.8358 93.1445 40.8592 93.2422 38.8475 92.5781C37.5389 92.1289 37.1678 91.9141 28.7108 86.4258C25.4295 84.3164 22.4413 82.4219 22.0702 82.2266C20.1756 81.2695 17.0897 80.7422 15.0194 81.0547Z" fill="#FF0068"/>
</g>
<defs>
<clipPath id="clip0_47_95">
<rect width="100" height="100" fill="white"/>
</clipPath>
</defs>
</svg>
