<svg width="100" height="100" viewBox="0 0 100 100" fill="none" xmlns="http://www.w3.org/2000/svg">
<path d="M10.1 0.291077C6.53219 1.07745 3.1055 3.73904 1.45263 7.04588C-0.0994533 10.1511 0.00133155 6.54179 0.00133155 55.2973V99.012L0.505256 99.4959L0.989023 100H49.9906H98.9922L99.4759 99.4959L99.9798 99.012V72.5775V46.1431L99.4759 45.6591L98.9922 45.155H88.188H77.4041V39.5092V33.8634H88.188H98.9922L99.4961 33.3594L100 32.8553L99.9395 21.604C99.8791 10.635 99.8589 10.3325 99.4356 9.06223C98.327 5.79573 95.8477 2.91234 92.9249 1.4404C89.8409 -0.112198 92.8443 -0.0113754 49.8898 0.00878143C17.8402 0.00878143 11.1683 0.0692749 10.1 0.291077ZM77.5653 4.22298C76.3559 5.61426 75.2473 7.50964 74.7232 9.06223C74.2797 10.3729 74.2797 10.4132 74.2193 27.7539L74.1588 45.155H64.9874H55.816L55.3322 45.6591L54.8283 46.1431V71.4685V96.7738H29.0274H3.22644V54.269C3.22644 7.91291 3.14582 10.7761 4.35523 8.417C5.08088 6.98538 6.83454 5.21099 8.24553 4.44477C10.6644 3.17447 8.38663 3.23495 45.0118 3.23495L78.4321 3.2148L77.5653 4.22298ZM89.3974 3.51725C92.8644 4.42461 95.5453 7.12653 96.4524 10.6148C96.6943 11.5625 96.7547 13.4982 96.7547 21.2007V30.6373H87.0794H77.4041V21.2007C77.4041 13.4982 77.4645 11.5625 77.7064 10.6148C79.0569 5.41263 84.338 2.20661 89.3974 3.51725ZM96.7547 72.5775V96.7738H77.4041H58.0534V72.5775V48.3812H77.4041H96.7547V72.5775Z" fill="#FF0068"/>
<path d="M36.3441 14.7684C36.1022 14.9096 34.7114 16.5831 33.2802 18.5188L30.6396 22.0273V27.1489V32.2502H32.2522H33.8648V29.8306V27.411H37.0899H40.315V29.8306V32.2502H41.9275H43.5401V27.1489V22.0273L40.8995 18.5188C38.4001 15.1717 37.7752 14.5265 37.0899 14.5265C36.9286 14.5265 36.586 14.6273 36.3441 14.7684ZM38.7629 21.0393C39.7708 22.3903 40.315 23.3178 40.315 23.6606V24.1848H37.0899H33.8648V23.6606C33.8648 23.3178 34.409 22.3903 35.4168 21.0393C36.2836 19.89 37.0294 18.9423 37.0899 18.9423C37.1503 18.9423 37.8962 19.89 38.7629 21.0393Z" fill="#FF0068"/>
<path d="M49.9305 16.1399C49.2854 16.6037 48.8017 17.0674 48.842 17.1884C48.8823 17.3295 49.9909 18.9426 51.3011 20.8178L53.6595 24.1852L51.3011 27.5525C49.9909 29.4277 48.8823 31.0408 48.842 31.1819C48.7412 31.444 51.1197 33.1378 51.3616 32.9765C51.4624 32.916 52.4299 31.6054 53.5184 30.0528C54.6069 28.48 55.5542 27.2097 55.6349 27.2097C55.7155 27.2097 56.6629 28.48 57.7514 30.0528C58.8398 31.6054 59.8275 32.916 59.9082 32.9966C60.1702 33.1378 62.3875 31.5247 62.3673 31.2021C62.3471 31.0609 61.2788 29.4277 59.9888 27.5525L57.6103 24.1852L59.9888 20.7977C61.2788 18.9426 62.3471 17.3094 62.3673 17.1682C62.3875 16.8456 60.1702 15.2325 59.9082 15.3737C59.8275 15.4543 58.8398 16.765 57.7514 18.3377C56.6629 19.8903 55.6953 21.1405 55.5946 21.1203C55.5139 21.08 54.5464 19.7895 53.4579 18.2571C52.3694 16.7045 51.4019 15.414 51.281 15.3938C51.1802 15.3535 50.5755 15.6963 49.9305 16.1399Z" fill="#FF0068"/>
<path d="M11.2891 17.7325V19.3456H14.5142H17.7393V25.7979V32.2502H19.3518H20.9644V25.7979V19.3456H24.1895H27.4146V17.7325V16.1194H19.3518H11.2891V17.7325Z" fill="#FF0068"/>
<path d="M28.2612 64.5724C21.9319 70.9038 16.7314 76.2068 16.7314 76.3076C16.7314 76.5698 18.5859 78.4248 18.8479 78.4248C18.9689 78.4248 24.2701 73.2024 30.6397 66.8307L42.23 55.2367L41.1214 54.1277C40.5167 53.5228 39.9724 53.0187 39.9119 53.0187C39.8515 53.0187 34.6107 58.2209 28.2612 64.5724Z" fill="#FF0068"/>
<path d="M20.9645 53.4828C19.9768 53.8054 18.2836 55.5395 17.9813 56.5678C17.4169 58.4632 17.82 59.9755 19.2512 61.3869C21.287 63.4436 23.8671 63.4436 25.903 61.3869C27.959 59.3504 27.959 56.7695 25.903 54.7329C24.492 53.3013 22.8391 52.8981 20.9645 53.4828ZM23.6857 56.9509C24.0082 57.2534 24.1896 57.6768 24.1896 58.0599C24.1896 58.443 24.0082 58.8665 23.6857 59.1689C23.3833 59.4916 22.9601 59.673 22.5771 59.673C22.1941 59.673 21.7708 59.4916 21.4684 59.1689C21.1459 58.8665 20.9645 58.443 20.9645 58.0599C20.9645 57.6768 21.1459 57.2534 21.4684 56.9509C21.7708 56.6283 22.1941 56.4469 22.5771 56.4469C22.9601 56.4469 23.3833 56.6283 23.6857 56.9509Z" fill="#FF0068"/>
<path d="M35.4772 68.0006C34.4895 68.3232 32.7963 70.0573 32.494 71.0857C31.9296 72.981 32.3327 74.4933 33.7639 75.9048C35.7997 77.9614 38.3798 77.9614 40.4157 75.9048C42.391 73.9489 42.4515 71.4284 40.5769 69.3516C39.2667 67.8998 37.3921 67.3957 35.4772 68.0006ZM38.1984 71.4688C39.2062 72.4568 38.5008 74.1908 37.0898 74.1908C36.7068 74.1908 36.2835 74.0094 35.9811 73.6868C35.6586 73.3843 35.4772 72.9609 35.4772 72.5778C35.4772 72.1947 35.6586 71.7712 35.9811 71.4688C36.2835 71.1461 36.7068 70.9647 37.0898 70.9647C37.4727 70.9647 37.896 71.1461 38.1984 71.4688Z" fill="#FF0068"/>
<path d="M61.7822 52.1114L61.2783 52.5954V72.5775V92.5596L61.7822 93.0435L62.266 93.5476H77.4039H92.5418L93.0255 93.0435L93.5295 92.5596V72.5775V52.5954L93.0255 52.1114L92.5418 51.6073H77.4039H62.266L61.7822 52.1114ZM90.3043 58.0597V61.2859H77.4039H64.5034V58.0597V54.8335H77.4039H90.3043V58.0597ZM70.9537 67.7382V70.9644H67.7285H64.5034V67.7382V64.512H67.7285H70.9537V67.7382ZM80.629 67.7382V70.9644H77.4039H74.1788V67.7382V64.512H77.4039H80.629V67.7382ZM90.3043 67.7382V70.9644H87.0792H83.8541V67.7382V64.512H87.0792H90.3043V67.7382ZM70.9537 77.4167V80.6429H67.7285H64.5034V77.4167V74.1906H67.7285H70.9537V77.4167ZM80.629 77.4167V80.6429H77.4039H74.1788V77.4167V74.1906H77.4039H80.629V77.4167ZM90.3043 82.256V90.3214H87.0792H83.8541V82.256V74.1906H87.0792H90.3043V82.256ZM70.9537 87.0953V90.3214H67.7285H64.5034V87.0953V83.8691H67.7285H70.9537V87.0953ZM80.629 87.0953V90.3214H77.4039H74.1788V87.0953V83.8691H77.4039H80.629V87.0953Z" fill="#FF0068"/>
</svg>
