<svg width="70" height="70" viewBox="0 0 70 70" fill="none" xmlns="http://www.w3.org/2000/svg">
<g clip-path="url(#clip0_54_10)">
<path d="M32.9765 0.273455C31.4862 0.669939 30.4198 1.28518 29.2441 2.46096C27.6171 4.07424 26.7968 6.00197 26.7968 8.24416C26.7968 9.47463 27.0839 10.7188 27.6308 11.8535C27.8632 12.3457 28.0273 12.7559 27.9999 12.7695C27.9862 12.7969 27.5624 12.9883 27.0702 13.2207C25.1562 14.1094 23.7343 15.5176 22.8183 17.4317C22.1073 18.9219 20.3163 26.0176 20.4257 26.9063C20.6034 28.2188 21.3417 29.3262 22.4765 29.9141L23.1737 30.2832L34.7265 30.3242C47.578 30.3653 47.1405 30.3926 48.248 29.4356C48.8769 28.9024 49.4511 27.8086 49.5741 26.9336C49.6835 26.0176 47.9062 18.9492 47.1816 17.4317C46.2655 15.5176 44.8437 14.1094 42.9296 13.2207C42.4374 12.9883 42.0136 12.7969 41.9999 12.7695C41.9726 12.7559 42.1366 12.3457 42.3691 11.8535C42.9159 10.7188 43.203 9.47463 43.203 8.24416C43.203 6.87697 42.998 6.00197 42.3554 4.64846C41.9179 3.73244 41.5761 3.2676 40.7558 2.46096C39.5663 1.2715 38.4999 0.656267 36.9687 0.273455C35.6562 -0.0683422 34.2753 -0.0683422 32.9765 0.273455ZM36.8319 4.56643C38.6366 5.4551 39.4843 7.47853 38.9101 9.50197C38.5956 10.5274 37.4608 11.7305 36.4491 12.0723C34.8495 12.6192 33.2909 12.2637 32.1015 11.0742C31.2538 10.2266 30.8983 9.37892 30.8983 8.21681C30.8983 5.18166 34.0839 3.22658 36.8319 4.56643ZM40.9062 16.7891C41.8632 17.1719 42.8886 18.0742 43.3671 18.9629C43.5859 19.3594 44.037 20.8633 44.5019 22.6953C44.9257 24.3906 45.2948 25.8809 45.3359 26.0039C45.4042 26.2363 44.8437 26.25 34.9999 26.25C25.1562 26.25 24.5956 26.2363 24.664 26.0039C24.705 25.8809 25.0741 24.3906 25.498 22.709C25.9218 21.0274 26.3866 19.4141 26.537 19.1133C27.1796 17.8418 28.5194 16.8438 29.9413 16.5567C30.2831 16.4883 32.7167 16.4336 35.3417 16.461C39.9765 16.4746 40.1542 16.4883 40.9062 16.7891Z" fill="#FF0068"/>
<path d="M4.58021 14.8203C2.58412 15.4492 1.12123 16.8438 0.369274 18.8399C0.0684925 19.6192 0.0684925 19.6602 0.0274768 31.9239C-0.0135388 45.7461 -0.0408826 45.2676 0.984508 47.4414C1.53138 48.6035 1.55873 48.6172 8.62709 55.7129L15.7228 62.836V64.9551C15.7228 67.4844 15.8869 68.1133 16.7482 68.9746C17.8009 70.0274 17.6095 70.0137 26.674 69.9453C36.2169 69.877 33.7833 69.877 43.3263 69.9453C52.3908 70.0137 52.1993 70.0274 53.2521 68.9746C54.1134 68.1133 54.2775 67.4844 54.2775 64.9551V62.836L61.3595 55.7129C68.3868 48.6719 68.4552 48.5899 69.0158 47.4414C70.0411 45.3223 70.0138 45.6504 69.9728 31.8555C69.9318 19.6602 69.9318 19.6192 69.631 18.8399C68.6329 16.1875 66.4318 14.6289 63.7247 14.6289C60.6486 14.6289 58.1329 16.6934 57.5587 19.6739C57.4767 20.0977 57.422 22.6407 57.422 25.5801V30.7617H56.9025C56.1642 30.7617 54.8927 31.1172 54.0861 31.5547C53.6349 31.7871 52.2951 33.0039 50.2853 34.9864L47.1681 38.0489L46.5118 37.9532C45.213 37.7891 42.8888 37.8438 42.1095 38.0899C40.6876 38.5137 39.963 39.0469 37.4474 41.6035L35.0411 44.0645L32.6622 41.6582C30.1056 39.0879 29.4083 38.5684 28.0275 38.1309C27.1115 37.8438 24.9513 37.7617 23.4884 37.9532L22.8322 38.0489L19.715 34.9864C17.6915 32.9903 16.3654 31.8008 15.9142 31.5547C15.1076 31.1172 13.8361 30.7617 13.0978 30.7617H12.5783V25.5801C12.5783 22.6407 12.5236 20.0977 12.4415 19.6739C12.0177 17.4317 10.3497 15.5586 8.18959 14.8887C7.21888 14.5879 5.42787 14.5469 4.58021 14.8203ZM7.46498 19.0039C7.71107 19.168 8.0392 19.5508 8.18959 19.8789C8.46302 20.4395 8.4767 20.6719 8.4767 26.5782V32.6895L8.1349 33.1407C7.20521 34.3574 6.74037 36.2032 6.98646 37.7344C7.28724 39.6758 7.50599 39.9492 12.3458 44.8028C17.1036 49.5606 17.049 49.5196 18.2794 49.2871C18.922 49.1641 19.6466 48.4258 19.7697 47.7696C19.9747 46.6485 19.8244 46.4434 15.3673 41.9727C10.9376 37.5157 10.8009 37.3516 11.0744 36.3809C11.2521 35.752 11.4435 35.5196 12.0314 35.1504C12.5646 34.836 13.0431 34.7949 13.631 35.0137C13.8361 35.0821 15.4357 36.5586 17.1583 38.2676C19.4279 40.5098 20.4943 41.4668 20.9865 41.7129C21.6427 42.0274 21.7658 42.041 24.172 42C26.2091 41.9727 26.7423 42 27.1115 42.1778C27.3576 42.2871 28.5197 43.3535 29.6954 44.543C31.965 46.8262 32.4845 47.5918 32.799 49.0547C32.8947 49.5469 32.9493 52.3907 32.9493 57.8321V65.8985H26.3869H19.8244V63.793C19.8244 62.6309 19.756 61.5098 19.674 61.291C19.6056 61.086 16.256 57.6133 12.2501 53.5938C5.93373 47.25 4.90834 46.1699 4.56654 45.459L4.17005 44.6387L4.12904 32.8809C4.1017 24.6778 4.12904 20.918 4.23841 20.4258C4.3888 19.7422 4.75795 19.2364 5.40052 18.8946C5.86537 18.6348 6.95912 18.7032 7.46498 19.0039ZM64.5724 18.8809C65.215 19.209 65.6115 19.7285 65.7618 20.4258C65.8712 20.918 65.8986 24.6778 65.8712 32.8809L65.8302 44.6387L65.4337 45.459C65.0919 46.1699 64.0665 47.25 57.7501 53.5938C53.7443 57.6133 50.3947 61.086 50.3263 61.291C50.2443 61.5098 50.1759 62.6309 50.1759 63.793V65.8985H43.6134H37.0509V57.8321C37.0509 52.3496 37.1056 49.5469 37.2013 49.0547C37.5294 47.5508 37.9396 46.9492 40.2365 44.6114C41.4396 43.3946 42.629 42.3008 42.8751 42.1778C43.2579 42 43.7775 41.9727 45.8283 42C49.2052 42.0547 48.8634 42.2324 52.8419 38.2813C54.5783 36.5586 56.1642 35.0821 56.3693 35.0137C56.9572 34.7949 57.4357 34.836 57.9689 35.1504C58.5568 35.5196 58.7482 35.752 58.9259 36.3809C59.1993 37.3516 59.0626 37.5157 54.6329 41.9727C50.1759 46.4434 50.0255 46.6485 50.2306 47.7696C50.3536 48.4258 51.0783 49.1641 51.7208 49.2871C52.9513 49.5196 52.8966 49.5606 57.6544 44.8028C62.4943 39.9492 62.713 39.6758 63.0138 37.7344C63.2599 36.2032 62.795 34.3574 61.8654 33.1407L61.5236 32.6895V26.5782C61.5236 20.6719 61.5372 20.4395 61.8107 19.8789C62.1798 19.1133 62.7677 18.7305 63.6154 18.7305C63.9845 18.7305 64.4083 18.7989 64.5724 18.8809Z" fill="#FF0068"/>
</g>
<defs>
<clipPath id="clip0_54_10">
<rect width="70" height="70" fill="white"/>
</clipPath>
</defs>
</svg>
