<svg width="70" height="70" viewBox="0 0 70 70" fill="none" xmlns="http://www.w3.org/2000/svg">
<path d="M50.5176 1.28511C49.9434 1.5312 49.3828 2.22847 49.2734 2.80269L49.1914 3.2812H44.8301H40.4688V4.42964V5.56441L39.9629 5.64644C39.6758 5.70113 35.9434 6.16597 31.6504 6.69918C27.3574 7.21871 23.6523 7.68355 23.4199 7.72457L22.9688 7.8066V10.9375V14.0683L23.4199 14.1367C23.6523 14.1777 24.0488 14.2324 24.2676 14.2461C24.6504 14.2871 24.5273 14.3964 22.7637 15.7363C21.7109 16.5293 20.7129 17.2539 20.5488 17.3359C20.3848 17.4316 19.6602 17.5 18.8535 17.5H17.4727L17.6914 17.1855C19.2363 15.0937 19.6191 14.0683 19.6191 12.0312C19.6191 10.9921 19.5508 10.3906 19.3594 9.84371C18.375 6.91793 16.0371 4.90816 13.1387 4.48433C8.3125 3.77339 4.00586 7.79293 4.41602 12.6328C4.56641 14.2871 5.22266 15.873 6.23438 16.9531C6.5625 17.3086 6.83594 17.6367 6.83594 17.6777C6.83594 17.7187 6.53516 17.8554 6.16602 17.9785C4.04688 18.6757 2.22852 20.5898 1.42188 22.9687C1.17578 23.6933 1.16211 24.5546 1.16211 44.707V65.6933L1.53125 66.3906C2.07812 67.4296 2.48828 67.8535 3.44531 68.373C4.23828 68.7968 4.40234 68.8378 5.46875 68.8378C6.53516 68.8378 6.69922 68.7968 7.49219 68.373C8.44922 67.8535 8.85938 67.4296 9.40625 66.3906L9.77539 65.6933L9.81641 55.8222L9.85742 45.9375H12.0312H14.2051L14.2461 49.7246C14.2871 53.498 14.2871 53.5253 14.6426 54.2773C14.9707 54.9609 16.0234 56.1914 16.2969 56.1914C16.3516 56.1914 16.4609 56.4511 16.5566 56.7656C16.8301 57.8046 17.1992 58.3378 18.3477 59.3906C21.0547 61.8515 23.6934 63.6562 26.8652 65.2148C30.2832 66.8964 33.5781 67.9218 37.3926 68.5234C39.9492 68.9199 45.0215 68.9472 47.5098 68.5918C54.9609 67.4843 61.4551 64.4218 66.9785 59.3769C68.4414 58.0371 68.8379 57.2714 68.8379 55.7812C68.8242 53.9902 68.1816 53.0468 65.4336 50.8457L64.5312 50.1211V35.4511V20.7812H61.25H57.9688V33.4277V46.0605L56.916 45.6093L55.8496 45.1582L55.8086 35.164L55.7812 25.1562H52.5H49.2188V34.1796C49.2188 42.5195 49.2051 43.2031 48.9863 43.2031C48.8633 43.2031 48.3711 43.1347 47.8926 43.0527L47.0312 42.9023V36.2168V29.5312H43.75H40.4688V36.1347V42.7382L38.7871 42.8886C33.8926 43.3671 28.4648 45.1718 24.2402 47.7421L22.9824 48.5078L22.9414 44.9257L22.9004 41.3437L22.3945 40.3046C21.7793 39.0605 20.9727 38.2812 19.7148 37.6933C18.8672 37.2968 18.6621 37.2558 17.0625 37.2148L15.3125 37.1601V31.1582V25.1562H18.9766C22.9961 25.1562 23.7344 25.0605 25.2109 24.3359C25.9355 23.9804 32.7168 18.8261 33.8105 17.8007C34.2344 17.4179 34.8633 16.2285 34.8633 15.8183C34.8633 15.6953 34.9043 15.5859 34.9727 15.5859C35.0273 15.5859 36.2441 15.7363 37.666 15.9277C39.1016 16.1191 40.3047 16.2695 40.373 16.2695C40.4277 16.2695 40.4688 16.789 40.4688 17.4316V18.5937H44.8301H49.1914L49.2734 19.0722C49.3965 19.7148 50.0801 20.4668 50.709 20.6582C50.9961 20.7402 51.8848 20.7812 52.8008 20.7539C54.5234 20.7128 54.8105 20.6035 55.4258 19.7695C55.7129 19.4003 55.7129 19.2636 55.7129 10.9375C55.7129 2.61128 55.7129 2.47456 55.4258 2.10542C54.7969 1.25777 54.5371 1.16206 52.6641 1.12105C51.4199 1.10738 50.8047 1.14839 50.5176 1.28511ZM53.5938 10.9375V18.5937H52.5H51.4062V10.9375V3.2812H52.5H53.5938V10.9375ZM49.2188 10.9375V16.4062H45.9375H42.6562V10.9375V5.46871H45.9375H49.2188V10.9375ZM14.2734 7.08199C15.5176 7.65621 16.3105 8.44918 16.9258 9.67965C17.4043 10.664 17.4316 10.7871 17.4316 12.0312C17.4316 13.2753 17.4043 13.3984 16.9258 14.3828C16.3105 15.6269 15.5176 16.3925 14.2461 16.9941C13.4121 17.3906 13.207 17.4316 12.0312 17.4316C10.8555 17.4316 10.6504 17.3906 9.81641 16.9941C8.54492 16.3925 7.75195 15.6269 7.13672 14.3828C6.6582 13.3984 6.63086 13.2753 6.63086 12.0449C6.63086 10.8554 6.67188 10.6503 7.06836 9.81636C7.61523 8.65425 8.39453 7.8066 9.41992 7.2734C10.4863 6.69918 11.0879 6.56246 12.332 6.61715C13.166 6.65816 13.5898 6.76754 14.2734 7.08199ZM40.4688 10.9511V14.1093L39.9629 14.0273C39.6758 13.9863 38.4043 13.8222 37.1191 13.6582C35.082 13.4121 34.7676 13.3437 34.5488 13.0839C34.4258 12.9199 34.125 12.5507 33.8926 12.2636C33.3047 11.539 32.2656 11.0468 31.1445 10.9648C29.9141 10.8828 29.0938 11.1015 28.0273 11.8125C27.1523 12.4003 27.125 12.414 26.3867 12.3046C25.9766 12.2363 25.5254 12.1816 25.4023 12.1816C25.1836 12.1679 25.1562 12.0175 25.1562 10.9375C25.1562 10.0488 25.1973 9.70699 25.334 9.70699C25.416 9.69332 28.793 9.26949 32.8125 8.76363C36.832 8.2441 40.209 7.82027 40.3047 7.8066C40.4277 7.79293 40.4688 8.50386 40.4688 10.9511ZM32.2246 13.6992C32.8262 14.3007 32.9629 15.1347 32.5801 15.8183C32.2246 16.4472 24.7598 22.2031 23.7891 22.5996C23.0645 22.8867 22.8457 22.9003 18.0879 22.9414L13.125 22.9824V31.1718V39.375H15.5312C17.0352 39.375 18.1562 39.4433 18.5117 39.539C19.2637 39.7578 20.3984 40.8925 20.6172 41.6445C20.7266 42.0273 20.7812 43.4628 20.7812 46.1699V50.1347L19.9336 50.8046C19.4551 51.1738 18.5664 51.9804 17.9512 52.582C16.9668 53.5527 16.8027 53.6757 16.6523 53.4843C16.5156 53.3339 16.4609 52.2265 16.4062 49.205C16.3379 45.3632 16.3242 45.1171 16.0508 44.7617C15.9004 44.5566 15.5996 44.2558 15.3945 44.1054C15.0391 43.832 14.793 43.8183 10.3496 43.75C6.13867 43.6816 5.61914 43.6543 5.1543 43.4218C4.45703 43.08 3.62305 42.0957 3.43164 41.3984C3.30859 40.9609 3.28125 38.541 3.30859 32.3203L3.34961 23.8437L3.85547 22.8046C4.4707 21.5605 5.26367 20.7949 6.53516 20.1933L7.45117 19.7558L14.2188 19.6875C20.4805 19.6191 21.0273 19.6054 21.4512 19.3593C21.7109 19.2226 23.6387 17.8281 25.7305 16.2421C27.8359 14.6699 29.6816 13.33 29.8457 13.2617C30.0098 13.1796 30.502 13.1523 30.9395 13.166C31.6367 13.207 31.7871 13.2753 32.2246 13.6992ZM62.3438 35.7519V48.5214L61.25 47.8789L60.1562 47.2363V35.0957V22.9687H61.25H62.3438V35.7519ZM53.5938 35.8203C53.5938 40.4824 53.5391 44.2968 53.4707 44.2968C53.416 44.2968 53.1836 44.2421 52.9648 44.1601C52.7461 44.0918 52.3086 43.9687 51.9941 43.8867L51.4062 43.7363V35.5468V27.3437H52.5H53.5938V35.8203ZM44.8438 37.2148V42.7246L43.75 42.6836L42.6562 42.6289V37.1738V31.7187H43.75H44.8438V37.2148ZM6.41211 45.9101L7.65625 45.9785L7.62891 55.6582C7.58789 65.1875 7.58789 65.3378 7.30078 65.707C6.76758 66.4316 6.33008 66.6503 5.46875 66.6503C4.60742 66.6503 4.16992 66.4316 3.63672 65.707C3.34961 65.3378 3.34961 65.1875 3.30859 55.1113L3.28125 44.8847L4.22461 45.3632C5.03125 45.7597 5.35938 45.8418 6.41211 45.9101ZM45.2539 45.1582C48.084 45.9375 50.2852 47.5097 51.8301 49.875C53.0332 51.707 53.5254 53.4023 53.5254 55.7812C53.5254 58.8711 52.5 61.3593 50.3672 63.4921C48.2344 65.625 45.7461 66.6503 42.6562 66.6503C39.5664 66.6503 37.0781 65.625 34.9453 63.4921C31.9648 60.5117 30.9941 56.3281 32.3477 52.2128C33.5508 48.5488 36.791 45.7871 40.8105 44.9941C41.7266 44.8164 44.3242 44.9121 45.2539 45.1582ZM33.1406 46.7851C31.6777 48.3574 30.4883 50.4902 29.9141 52.5683C29.4902 54.1406 29.4902 57.4218 29.9141 58.9941C30.4746 61.0175 31.6641 63.1777 33.0586 64.6953C33.4688 65.1328 33.7422 65.4882 33.6602 65.4882C33.5918 65.4882 32.7031 65.2011 31.7051 64.8593C27.4258 63.4101 23.1738 60.8808 20.043 57.955C18.8945 56.8886 18.5938 56.4238 18.5938 55.7812C18.5938 55.1386 18.8945 54.6738 20.043 53.6074C22.6133 51.2148 26.1133 48.9589 29.5312 47.5097C30.5977 47.0586 33.3457 46.1015 33.6191 46.0878C33.7285 46.0742 33.5098 46.4023 33.1406 46.7851ZM53.334 46.6074C57.9004 48.1523 62.002 50.5586 65.2695 53.6074C66.418 54.6738 66.7188 55.1386 66.7188 55.7812C66.7188 56.4238 66.418 56.8886 65.2695 57.955C62.1387 60.8808 57.8867 63.4101 53.6074 64.8593C52.6094 65.2011 51.7207 65.4882 51.6523 65.4882C51.5703 65.4882 51.8438 65.1328 52.2539 64.6953C53.6484 63.1777 54.8379 61.0175 55.3984 58.9941C55.6445 58.0918 55.6855 57.5312 55.6855 55.7812C55.6855 54.0312 55.6445 53.4707 55.3984 52.5683C54.8379 50.5449 53.6484 48.3847 52.2539 46.8671C51.8438 46.4296 51.5703 46.0742 51.6523 46.0742C51.7207 46.0742 52.4863 46.3066 53.334 46.6074Z" fill="#FF0068"/>
<path d="M40.7557 47.2363C39.2518 47.5644 37.6659 48.4531 36.5038 49.6289C33.0858 53.0469 33.0585 58.5019 36.4354 61.8652C38.1171 63.5332 39.9081 64.3535 42.1776 64.4902C44.7206 64.6406 47.0038 63.7519 48.8358 61.9199L49.9159 60.8535L49.5468 60.1289C48.9042 58.8574 49.2733 57.7773 50.6268 57.0527L51.3378 56.6699L51.3241 55.4394C51.2831 50.1211 46.0741 46.0879 40.7557 47.2363ZM41.6991 49.6562C43.6678 51.0098 42.328 53.9766 39.9628 53.5254C39.2929 53.4023 38.4725 52.582 38.3495 51.9121C38.1991 51.1602 38.3632 50.7637 38.9511 50.3672C39.4159 50.0664 40.9335 49.3691 41.1659 49.3555C41.2069 49.3555 41.453 49.4922 41.6991 49.6562ZM45.8417 50.0801C47.3729 50.8867 48.7401 52.7734 49.0819 54.5371C49.205 55.2344 49.205 55.2891 48.9179 55.4941C47.578 56.4102 46.744 58.4883 47.1405 59.9102C47.2772 60.4023 47.2636 60.4434 46.8124 60.8398C46.1971 61.373 45.1718 61.8926 44.2011 62.1387C40.0038 63.2324 35.7929 59.6641 36.1346 55.3027C36.1757 54.7695 36.285 54.1406 36.3807 53.8809C36.5311 53.4434 36.5585 53.4297 36.7362 53.6758C37.16 54.291 37.9804 55.0156 38.6229 55.3437C39.1971 55.6445 39.4843 55.6992 40.4686 55.6992C41.453 55.6992 41.7401 55.6445 42.328 55.3437C43.3534 54.8105 43.7909 54.3867 44.2694 53.4844C44.9257 52.2676 44.9803 51.0098 44.4745 49.6699C44.3651 49.3965 44.7753 49.5195 45.8417 50.0801Z" fill="#FF0068"/>
</svg>
