<svg width="100" height="100" viewBox="0 0 100 100" fill="none" xmlns="http://www.w3.org/2000/svg">
<path d="M12.5356 0.234373C11.7535 0.644529 11.6558 0.996092 11.6558 3.0664V5.09765L13.2786 5.03906L14.8819 4.98047L14.9406 4.14062L14.9993 3.32031H39.1272H63.2551L63.3138 10.3711L63.3724 17.4219L63.9199 17.8906L64.4674 18.3594H71.389H78.3302L78.3693 22.5L78.4279 26.6602L80.0508 26.7187L81.6541 26.7773V21.3477V15.9375L73.9895 8.24219C69.7661 4.02344 66.0707 0.429686 65.7774 0.273436C65.3277 0.0390606 61.3976 -1.90735e-06 39.0881 -1.90735e-06C20.5326 0.0195293 12.8094 0.0781231 12.5356 0.234373ZM71.3303 10.293C73.794 12.7344 75.7883 14.8047 75.7883 14.8828C75.7883 14.9805 73.7157 15.0391 71.1935 15.0391H66.5986V10.4492C66.5986 7.92969 66.6573 5.85937 66.7355 5.85937C66.8332 5.85937 68.8863 7.85156 71.3303 10.293Z" fill="#FF0068"/>
<path d="M17.9127 6.7577C17.6389 6.79676 16.8959 6.93348 16.2507 7.05067C14.5301 7.34364 12.7508 7.94911 10.8737 8.88661C5.71183 11.4647 2.01639 16.1327 0.471736 22.0311C-0.153948 24.414 -0.153948 28.8085 0.452183 31.2499C1.42981 35.1561 3.30686 38.3397 6.23976 41.1327C8.48831 43.2616 10.6391 44.5702 13.5133 45.5468C18.8707 47.3436 24.0717 46.9725 29.0577 44.414C34.9039 41.4061 39.1859 35.3515 39.7334 29.2968C39.8898 27.4608 39.8702 27.4999 40.8283 27.9296C41.2976 28.1444 41.9624 28.3202 42.2948 28.3202C42.7249 28.3202 43.2333 28.5546 43.8003 28.9843C45.521 30.2929 47.6131 30.2929 49.4315 29.0038C50.0376 28.5546 50.6046 28.3202 51.0152 28.3202C52.99 28.3007 55.0626 26.035 55.0626 23.9061C55.0626 23.7304 55.2777 23.2811 55.571 22.91C56.9983 21.0546 56.9788 18.9452 55.5514 17.0702C55.2777 16.7186 55.0626 16.2304 55.0626 15.996C55.0626 13.9843 53.2051 11.9921 51.0348 11.6405C50.5851 11.5819 49.7639 11.2304 49.2359 10.8593C47.4958 9.68739 45.6187 9.72645 43.8981 10.9765C43.3702 11.3475 42.7445 11.621 42.2752 11.6796C40.887 11.7968 39.3619 12.8515 38.7166 14.1015C38.5602 14.3944 38.3842 15.0585 38.306 15.5663C38.2474 16.0936 38.0714 16.66 37.915 16.8358C37.6412 17.1483 37.5239 17.0507 36.6441 15.664C35.4709 13.8866 32.9682 11.328 31.228 10.1561C28.0996 8.0663 24.4237 6.87489 20.65 6.73817C19.4182 6.69911 18.1864 6.69911 17.9127 6.7577ZM24.0913 10.5468C27.3761 11.3671 30.6414 13.4569 32.8704 16.1522C34.1804 17.7343 35.5491 20.4491 36.1161 22.5585C36.7027 24.7655 36.7027 28.5546 36.1161 30.7616C34.5324 36.6405 30.3481 40.9179 24.4237 42.6952C22.9377 43.1444 22.3316 43.2225 20.0635 43.2225C16.9937 43.2421 15.5859 42.9491 13.0636 41.7772C3.40463 37.3046 0.295762 25.5663 6.47439 16.8944C8.99667 13.3397 13.1027 10.8593 17.6194 10.1561C19.2618 9.90223 22.2533 10.078 24.0913 10.5468ZM47.1243 13.5155C47.398 13.6327 47.6717 13.8866 47.7304 14.0819C47.8086 14.2772 48.0823 14.6288 48.3561 14.8436C48.8058 15.1952 49.0404 15.2343 49.9985 15.1171C51.0348 14.9999 51.1325 15.0194 51.4454 15.4882C51.6996 15.8983 51.7191 16.1327 51.5627 16.6991C51.3085 17.6171 51.5432 18.1835 52.3644 18.7694C53.5962 19.6288 53.6353 20.2147 52.5012 21.1132C51.5236 21.8944 51.3085 22.4022 51.5823 23.3007C51.7582 23.8866 51.7387 24.0819 51.4649 24.5116C51.1325 25.0194 51.0739 25.0194 49.9594 24.9022L48.7862 24.7655L47.965 25.6444C47.5153 26.1327 47.007 26.5624 46.8505 26.5819C46.3422 26.6796 45.6969 26.3671 45.5796 25.9765C45.521 25.7616 45.2277 25.41 44.9344 25.1757C44.4847 24.8241 44.25 24.785 43.3702 24.9022C42.5294 24.9999 42.2557 24.9608 41.9428 24.6874C41.6104 24.3944 41.5909 24.1796 41.6886 23.1444C41.806 21.953 41.806 21.9335 41.1607 21.4257C40.7892 21.1327 40.3786 20.8007 40.2613 20.6835C39.9876 20.4686 39.9289 19.746 40.1635 19.4335C40.2417 19.3163 40.6328 18.9843 41.063 18.6718L41.806 18.1054L41.6886 16.8944C41.5909 15.8397 41.6104 15.6444 41.9624 15.3319C42.2752 15.0585 42.5294 15.0194 43.4288 15.1366C44.5824 15.2733 44.5629 15.2929 45.9511 13.6522C46.3226 13.2225 46.4595 13.203 47.1243 13.5155Z" fill="#FF0068"/>
<path d="M21.041 24.9024L13.3178 32.6173L11.4212 30.7227L9.505 28.8087L8.33185 29.9806L7.15869 31.172L9.97427 33.9649C12.7116 36.6602 12.8289 36.7579 13.4546 36.6407C13.9826 36.5431 15.7618 34.8634 22.6053 28.0274L31.1106 19.5313L29.9375 18.3595L28.7643 17.1876L21.041 24.9024Z" fill="#FF0068"/>
<path d="M80.0898 8.30078V9.96094H82.5339H84.978V17.4805V25H86.64H88.3019V16.3477C88.2824 9.86328 88.2237 7.63672 88.0478 7.40234C87.5394 6.73828 86.9919 6.64062 83.5311 6.64062H80.0898V8.30078Z" fill="#FF0068"/>
<path d="M86.327 28.4961C83.7265 29.0039 80.8327 30.7226 79.2881 32.6562C77.8412 34.4922 76.7658 37.207 76.7658 39.1211V40.0586L73.8133 43.1836C72.1905 44.9023 70.2548 46.9336 69.5313 47.7148L68.2017 49.1211L65.2884 46.2305C62.6683 43.6719 62.2968 43.3594 61.7103 43.3594C61.0846 43.3594 60.4393 43.9648 53.1462 51.2109C48.8055 55.5469 45.1688 59.2773 45.071 59.5312C44.9537 59.8437 44.9928 60.1758 45.1688 60.6055C45.3252 60.957 50.5457 66.3281 57.35 73.0859C69.0425 84.7461 69.2576 84.9609 70.0201 84.9609C70.7631 84.9609 70.9586 84.7852 77.8803 77.8906L84.9779 70.8203V83.75V96.6797H52.4228H19.8677V98.3398V100L53.7132 99.9609L87.5588 99.9023L87.9303 99.4336C88.2823 98.9844 88.3018 98.3789 88.3018 78.6914V58.3984H86.6398H84.9779V62.1484V65.918L82.1427 63.0859C80.5785 61.5234 79.3076 60.2148 79.3076 60.1562C79.3076 60.0977 81.2824 58.1836 83.707 55.8984L88.0867 51.7578L89.6118 51.5625C91.4889 51.3281 92.1341 51.1133 93.8743 50.2148C94.7542 49.7656 95.7318 49.0234 96.6117 48.1445C100.229 44.5312 101.031 39.1016 98.6256 34.5117C97.6871 32.7148 95.3994 30.5078 93.581 29.6094C91.2934 28.4961 88.5169 28.0664 86.327 28.4961ZM90.3548 31.9336C91.9777 32.3633 93.2291 33.1055 94.3827 34.3164C97.4915 37.5976 97.4329 42.6562 94.2263 45.8594C92.7598 47.3437 91.1565 48.0469 88.8102 48.2422C87.7934 48.3203 86.8354 48.4766 86.6985 48.5547C86.5616 48.6523 83.179 51.8164 79.1707 55.6055C75.1625 59.3945 71.819 62.5 71.7408 62.5C71.643 62.5 70.2743 61.1914 68.671 59.5898L65.7577 56.6797L66.1292 56.2109C66.3247 55.957 69.4531 52.6367 73.0508 48.8477C76.6485 45.0586 79.6791 41.8164 79.7769 41.6406C79.8746 41.4648 80.0311 40.4883 80.1093 39.4922C80.207 38.0078 80.3635 37.4414 80.8914 36.3672C82.6316 32.832 86.6203 30.9766 90.3548 31.9336ZM63.861 49.5117L65.9141 51.5625L64.6236 52.8711C62.1209 55.4883 61.7103 55.9961 61.7103 56.6797C61.7103 57.2461 62.1991 57.793 66.3442 61.9531C72.1123 67.7148 71.4866 67.5195 74.615 64.5117L76.7853 62.4219L79.7573 65.3906L82.7293 68.3594L78.9166 72.168L75.1038 75.9766L64.604 65.4883L54.0847 54.9805L57.8388 51.2305C59.9114 49.1602 61.6516 47.4609 61.7103 47.4609C61.7689 47.4609 62.727 48.3789 63.861 49.5117ZM71.4475 79.6289C70.7827 80.3125 70.1374 80.8594 70.0201 80.8594C69.9224 80.8594 65.132 76.1719 59.4226 70.4687L49.0011 60.0586L50.3111 58.75L51.6407 57.4219L62.1404 67.9102L72.6597 78.418L71.4475 79.6289Z" fill="#FF0068"/>
<path d="M41.6104 35L41.6691 36.6211H49.9789H58.2888L58.3474 35L58.4061 33.3984H49.9789H41.5518L41.6104 35Z" fill="#FF0068"/>
<path d="M36.6831 43.2617V44.9219H46.6549H56.6268V43.2617V41.6016H46.6549H36.6831V43.2617Z" fill="#FF0068"/>
<path d="M21.6274 50V51.7578H24.9514H28.2753V50V48.2422H24.9514H21.6274V50Z" fill="#FF0068"/>
<path d="M31.6776 48.4961C31.619 48.6523 31.5994 49.4141 31.6385 50.2148L31.6972 51.6602L39.9679 51.7188L48.2191 51.7578V50V48.2422H40.007C33.3005 48.2422 31.7558 48.2812 31.6776 48.4961Z" fill="#FF0068"/>
<path d="M11.6558 71.1328C11.6753 93.5156 11.6362 92.6367 12.5747 93.125C12.8876 93.3008 21.4712 93.3594 46.7527 93.3594H80.5201L81.0871 92.793L81.6541 92.2266V86.1523V80.0781H79.9921H78.3302V85.0586V90.0391H46.6549H14.9797V70.0195V50H13.3177H11.6558V71.1328Z" fill="#FF0068"/>
<path d="M21.6274 56.7383V58.3984H31.5993H41.5711V56.7383V55.0781H31.5993H21.6274V56.7383Z" fill="#FF0068"/>
<path d="M21.6274 63.3789V65.0391H26.6134H31.5993V63.3789V61.7188H26.6134H21.6274V63.3789Z" fill="#FF0068"/>
<path d="M34.9233 63.3789V65.0391H38.2473H41.5712V63.3789V61.7188H38.2473H34.9233V63.3789Z" fill="#FF0068"/>
<path d="M21.6274 70.0195V71.6797H28.2753H34.9232V70.0195V68.3594H28.2753H21.6274V70.0195Z" fill="#FF0068"/>
<path d="M38.8927 68.8281L38.3452 69.2969V76.6211V83.9453L38.8145 84.4531L39.2837 84.9609H50.5069H61.7106V83.3008V81.6406H51.641H41.5714V76.6602V71.6797H45.7752H49.979V70.0195V68.3594H44.7194H39.4402L38.8927 68.8281Z" fill="#FF0068"/>
<path d="M21.6274 76.6602V78.3203H28.2753H34.9232V76.6602V75H28.2753H21.6274V76.6602Z" fill="#FF0068"/>
<path d="M44.8955 76.6602V78.3203H49.9792H55.0629V76.6602V75H49.9792H44.8955V76.6602Z" fill="#FF0068"/>
<path d="M21.6274 83.3008V84.9609H28.2753H34.9232V83.3008V81.6406H28.2753H21.6274V83.3008Z" fill="#FF0068"/>
</svg>
