<svg width="97" height="100" viewBox="0 0 97 100" fill="none" xmlns="http://www.w3.org/2000/svg">
<path d="M39.2965 0.248352C38.3773 0.560852 36.8015 2.24055 36.5201 3.23665C36.3888 3.68587 36.295 4.89681 36.295 5.93197V7.80698H25.4894C17.5353 7.80698 14.4587 7.86557 13.8959 8.04135C12.8641 8.35385 11.3071 9.97495 11.0069 11.0492C10.8568 11.6156 10.7818 13.9789 10.7818 19.0766V26.2836L9.59993 27.5336C7.44257 29.8774 6.65466 32.0844 6.65466 35.9516V38.2368L6.01683 38.7446C4.27218 40.1313 4.10334 43.2368 5.67916 44.9946C6.33574 45.7173 7.49885 46.2837 8.39931 46.2837C8.90582 46.2837 9.13094 46.3814 9.20598 46.6157C9.56241 47.9439 10.8005 50.0142 11.8511 51.1275L13.033 52.3384V54.0767V55.815L9.2435 57.1431C4.87249 58.647 3.93451 59.0767 2.7714 60.2095C1.75838 61.1861 1.10179 62.3189 0.632801 63.8814C0.295127 64.9947 0.276367 65.8736 0.276367 77.3581V89.6628L0.745359 90.1315L1.19559 90.6198H15.3779H29.5415V94.8191C29.5415 99.0378 29.5415 99.0378 30.0105 99.5066L30.4607 99.9949H49.4267H68.3928L68.843 99.5066L69.312 99.0378V93.8425V88.6667H82.425H95.5568L95.9508 88.1394C96.3447 87.6315 96.3447 87.5729 96.2884 75.4049C96.2321 63.4127 96.2321 63.1588 95.8382 62.1627C95.6131 61.5963 95.1253 60.7174 94.7501 60.19C93.6058 58.5494 92.4052 57.8658 87.9966 56.3228L84.0384 54.9361L83.9821 53.2564L83.9258 51.5767L85.1452 50.3267C86.0081 49.4087 86.5521 48.6275 87.0587 47.5337C87.8466 45.815 87.9404 45.6978 88.6908 45.6978C89.4224 45.6978 90.5292 45.0532 91.2233 44.2524C91.8424 43.5103 92.1988 42.4946 92.1988 41.3813C92.1988 40.4829 91.4109 38.8618 90.698 38.3149L90.1352 37.8657V35.6782C90.1352 32.3579 89.5725 30.4047 87.9966 28.2563L87.3213 27.3383V15.6976C87.3213 7.2601 87.265 3.82259 87.0962 3.27571C86.9836 2.84602 86.5146 2.06477 86.0644 1.55695C84.6199 -0.122742 86.3833 -0.0055542 61.7331 0.0139771C46.4252 0.0335083 39.7655 0.0921021 39.2965 0.248352ZM83.8508 3.60774L84.3197 4.07649V14.6625C84.3197 24.643 84.301 25.2289 84.0008 25.0922C82.1436 24.35 76.3656 24.1352 74.0207 24.7016C70.5126 25.561 67.6049 28.5883 66.7794 32.2407C66.6294 32.9633 66.498 34.4282 66.498 35.6782V37.8657L65.954 38.2563C65.2599 38.7837 64.4345 40.4829 64.4345 41.3813C64.4345 42.4946 64.7909 43.5103 65.41 44.2524C66.1041 45.0532 67.2109 45.6978 67.9425 45.6978C68.6742 45.6978 68.768 45.7954 69.5746 47.5532C70.0999 48.647 70.6627 49.4868 71.5069 50.3658L72.7075 51.6158L72.6512 53.2759L72.5949 54.9361L68.6367 56.3228C64.2469 57.8658 63.0275 58.5494 61.9207 60.1314C61.2641 61.0689 60.4949 62.8267 60.4949 63.4322C60.4762 64.2721 60.2511 64.2721 57.8498 63.4127L55.5236 62.5924L55.4674 60.6783L55.4111 58.7447L56.7055 57.4361C57.9812 56.147 59.1067 54.3306 59.557 52.8658C59.7633 52.2017 59.8384 52.1431 60.4574 52.1431C61.3204 52.1431 62.8774 51.4009 63.534 50.6587C65.1661 48.8423 64.9598 45.6392 63.1213 44.1157L62.4084 43.5103L62.3334 40.4634C62.2584 37.9438 62.1833 37.1821 61.8456 36.2446C60.7013 32.9633 58.3001 30.4633 55.1297 29.2524C54.1729 28.8813 53.5539 28.8032 50.421 28.7446L46.8004 28.6664V20.268C46.8004 14.3304 46.7253 11.6351 46.5753 11.0882C46.4627 10.6586 45.9937 9.8773 45.5435 9.36948C44.4742 8.13901 43.555 7.80698 41.135 7.80698H39.2965V5.9515C39.2965 4.23274 39.334 4.03743 39.7655 3.60774L40.2157 3.11946H61.8081H83.4005L83.8508 3.60774ZM43.3298 11.4203L43.7988 11.889V20.5414L43.7801 29.1938L42.3356 29.9165C39.7092 31.2055 37.5331 33.979 36.7827 37.0259C36.5764 37.8462 36.4826 39.0962 36.4826 40.854V43.4907L35.7509 44.0962C34.2689 45.3462 33.7249 47.8267 34.5878 49.5454C35.3007 51.0298 36.9703 52.1431 38.4898 52.1431C39.0151 52.1431 39.0902 52.2408 39.4653 53.2955C40.0094 54.8384 41.1912 56.6548 42.3168 57.6705L43.236 58.4908V60.5806V62.651L40.3658 63.6471C38.8088 64.1939 37.4205 64.6432 37.308 64.6432C37.1767 64.6432 37.0266 64.3502 36.9703 63.9791C36.6702 62.358 34.9818 60.0533 33.3872 59.0963C32.9745 58.8424 30.7984 58.0025 28.566 57.2408L24.4764 55.815V54.0572V52.2994L25.4519 51.4009C26.5774 50.3462 27.6655 48.6665 28.1533 47.2603C28.4722 46.3423 28.5285 46.2837 29.1475 46.2837C31.3236 46.2642 33.3872 43.6665 32.9933 41.4399C32.8057 40.3657 32.2616 39.3696 31.53 38.7251L30.8922 38.1782L30.8171 35.3462C30.7609 33.061 30.6671 32.2993 30.3294 31.3813C29.2788 28.393 26.9902 26.0492 24.0824 24.9555C22.9756 24.5453 22.5629 24.5063 19.0361 24.5063C16.9162 24.5063 14.8714 24.5844 14.4962 24.6625L13.7833 24.8188V18.3539V11.889L14.2523 11.4203L14.7026 10.932H28.7911H42.8796L43.3298 11.4203ZM22.9943 27.9242C25.1517 28.6078 26.9526 30.5024 27.5717 32.6704C27.7405 33.2758 27.8531 34.4477 27.8531 35.6587V37.6509L26.0334 37.7876C22.4878 38.0805 19.9928 37.3384 18.2669 35.5219C16.9162 34.0962 16.5973 34.0766 15.2466 35.2485C14.1023 36.2641 12.7703 37.0063 11.3258 37.3969C9.52489 37.9048 9.59993 38.0219 9.69373 35.3852C9.75001 33.3149 9.80629 32.9829 10.3316 31.8305C11.232 29.8383 12.7328 28.4907 14.8151 27.8071C15.2841 27.6508 16.7286 27.5532 18.6796 27.5532C21.306 27.5336 22.0001 27.5922 22.9943 27.9242ZM83.1191 28.1782C84.5636 28.8813 85.8393 30.2094 86.5146 31.7329C86.9649 32.7485 87.0399 33.2172 87.0962 35.0922C87.19 37.6313 87.2463 37.5532 85.4266 36.9868C83.9821 36.5376 82.7252 35.8344 81.7872 34.936C80.6241 33.8227 80.0238 33.8813 78.8232 35.1704C77.2098 36.9477 74.7336 37.6704 71.263 37.3969L69.4621 37.2602L69.5371 35.0727C69.5934 33.2172 69.6684 32.7485 70.1187 31.7329C70.719 30.3852 71.8821 29.0571 72.9701 28.4711C74.5084 27.6313 75.0712 27.5336 78.598 27.5922C81.8622 27.6313 82.0123 27.6508 83.1191 28.1782ZM54.9046 32.5532C56.5554 33.354 57.9061 34.7602 58.6753 36.479C59.238 37.7094 59.2756 37.9438 59.3318 40.3657L59.4069 42.9634H58.8441C58.0562 42.9634 55.8613 42.2407 54.9046 41.6548C54.4543 41.4009 53.6852 40.7954 53.1599 40.3071C51.8655 39.1157 51.434 39.1352 50.1584 40.5415C48.9953 41.7915 47.8697 42.4556 46.2001 42.8657C44.9619 43.1587 42.1855 43.2368 40.4596 43.022L39.4466 42.9048L39.5216 40.3462C39.5779 37.9634 39.6154 37.7094 40.1595 36.4985C41.1537 34.311 42.5795 33.0024 44.8306 32.1821C45.6373 31.8696 46.3314 31.8305 49.7081 31.8696L53.6477 31.9282L54.9046 32.5532ZM82.9878 39.3696C83.7757 39.7407 84.5636 40.0337 84.77 40.0337C85.0889 40.0337 85.1077 40.2095 85.0326 42.4165C84.9763 44.5454 84.9013 44.9556 84.4323 46.0103C83.7945 47.5142 82.5001 48.8228 81.0368 49.5454C80.0801 50.0142 79.6673 50.0923 78.3167 50.0923C76.966 50.0923 76.5532 50.0142 75.5965 49.5454C74.1145 48.8228 72.8388 47.5142 72.201 46.0103C71.7508 45.0142 71.657 44.4868 71.6007 42.7485L71.5256 40.6782L73.2703 40.5415C76.178 40.3266 78.5418 39.5454 80.005 38.3149L80.474 37.9243L81.018 38.3345C81.3182 38.5493 82.1999 39.018 82.9878 39.3696ZM17.2164 38.7446C18.9047 40.0532 20.9683 40.7368 23.9886 40.9321L25.8271 41.0688L25.752 43.2368C25.677 45.1704 25.6019 45.561 25.0954 46.7134C24.3638 48.354 23.2757 49.4673 21.6999 50.2486C20.5743 50.815 20.2554 50.8736 18.7547 50.8736C17.2164 50.8736 16.935 50.815 15.8094 50.229C14.2336 49.4282 12.8454 47.8853 12.2638 46.3228C11.9261 45.4243 11.8511 44.7798 11.8323 42.9048L11.8136 40.6001L13.4081 39.9751C14.2899 39.6235 15.3404 39.0962 15.7531 38.8032C16.1658 38.5102 16.5223 38.2759 16.5598 38.2759C16.5973 38.2759 16.8974 38.4907 17.2164 38.7446ZM68.5616 41.4985C68.5616 42.6509 68.3177 42.8657 67.7362 42.2603C67.3422 41.8696 67.361 41.2251 67.7549 40.7759C68.3177 40.1313 68.5616 40.3266 68.5616 41.4985ZM88.8596 40.7563C89.2723 41.147 89.2911 41.8501 88.8971 42.2603C88.3156 42.8657 88.0717 42.6509 88.0717 41.4985C88.0717 40.3462 88.2593 40.1704 88.8596 40.7563ZM8.71822 41.9868C8.71822 42.8657 8.66195 43.1587 8.45559 43.1587C7.68644 43.1587 7.31125 41.8501 7.91156 41.1665C8.49311 40.5024 8.71822 40.7173 8.71822 41.9868ZM29.7853 41.4204C30.1043 41.8892 30.123 42.0063 29.8979 42.4946C29.7478 42.8267 29.4477 43.0806 29.2038 43.1196C28.8098 43.1782 28.7911 43.1196 28.7911 41.9868C28.7911 40.9712 28.8474 40.7954 29.0912 40.854C29.2601 40.8931 29.579 41.147 29.7853 41.4204ZM52.841 43.9985C53.7977 44.6431 55.8801 45.5806 56.6492 45.7368C57.0056 45.7954 57.0244 45.9517 57.0244 48.5298C57.0244 51.1861 57.0056 51.3033 56.4241 52.5728C55.2798 55.0923 53.2162 56.7525 50.6086 57.2603C46.8379 57.983 42.8233 55.1509 41.9229 51.1275C41.8291 50.6587 41.7353 49.3892 41.7353 48.2759V46.2837H43.1985C46.1063 46.2837 48.7514 45.5415 50.5898 44.2329C51.2464 43.7642 51.7905 43.3735 51.8092 43.3735C51.8467 43.354 52.297 43.647 52.841 43.9985ZM38.7337 47.5532C38.7337 48.8423 38.6962 49.0181 38.396 49.0181C37.9646 49.0181 37.2329 48.3345 37.2142 47.8853C37.1579 47.2212 37.2705 46.9673 37.7207 46.5181C38.5649 45.7368 38.7337 45.9126 38.7337 47.5532ZM61.1328 46.4986C62.0332 47.2407 61.5643 49.0181 60.4574 49.0181C60.1573 49.0181 60.1198 48.8423 60.1198 47.5532C60.1198 45.9321 60.2511 45.7759 61.1328 46.4986ZM78.3167 53.2173C79.0858 53.2173 80.005 53.1587 80.3427 53.0806L80.943 52.9244V54.233C80.943 55.522 80.9242 55.5806 79.6861 57.5533C78.9732 58.647 78.3729 59.565 78.3167 59.565C78.2604 59.565 77.6601 58.647 76.966 57.5533C75.7091 55.5806 75.6903 55.522 75.6903 54.233V52.9244L76.3094 53.0806C76.6283 53.1587 77.5475 53.2173 78.3167 53.2173ZM18.8485 53.9986C19.6176 53.9986 20.5368 53.94 20.8745 53.8619L21.4748 53.7056V55.19V56.6548L20.1429 58.7056C19.4112 59.8189 18.7922 60.7369 18.7547 60.7369C18.7359 60.7369 18.1168 59.7799 17.3664 58.6275L16.0345 56.5181V55.1314V53.7251L16.7474 53.8619C17.1226 53.94 18.0793 53.9986 18.8485 53.9986ZM74.7523 59.7603C75.3714 60.7174 75.8779 61.5767 75.8779 61.6549C75.8779 61.8306 73.9644 63.8619 73.7956 63.8619C73.5892 63.8619 71.6945 58.7838 71.8258 58.6275C71.9946 58.4713 73.0639 58.0416 73.3829 58.022C73.5142 58.0025 74.1332 58.7838 74.7523 59.7603ZM84.4135 58.3931C84.6762 58.4908 84.8825 58.647 84.8825 58.7447C84.8825 58.9595 83.0441 63.6861 82.9128 63.8228C82.8002 63.9596 80.7554 61.9088 80.7554 61.6549C80.7554 61.5767 81.2619 60.7174 81.8997 59.7408C83.1191 57.8463 83.0816 57.8658 84.4135 58.3931ZM15.2841 60.9127L16.4472 62.7486L15.2466 63.9986L14.0272 65.2682L12.9579 62.4947C12.3764 60.9713 11.9449 59.6627 12.0012 59.5845C12.2263 59.3697 13.8771 58.8228 13.9897 58.9595C14.0647 59.0181 14.6275 59.897 15.2841 60.9127ZM25.5457 59.4674C25.752 59.5259 25.2643 60.9517 23.801 64.6236L23.5196 65.3072L22.4128 64.1549C21.7937 63.5103 21.2872 62.8853 21.2872 62.7291C21.2872 62.4947 22.9193 59.8385 23.4821 59.1353C23.7635 58.8033 23.801 58.8033 25.5457 59.4674ZM70.325 63.6666C71.807 67.5729 72.276 68.3541 73.139 68.3541C73.3641 68.3541 73.7205 68.2174 73.9269 68.0611C74.4334 67.6705 74.4334 67.6705 75.0149 68.5885L75.5402 69.4283L74.6773 75.8737C74.1895 79.4088 73.7956 82.5925 73.8143 82.9245C73.8143 83.3151 74.0582 83.862 74.4709 84.4284C74.8273 84.9167 75.1275 85.3659 75.1275 85.4245C75.1275 85.4831 73.8331 85.5417 72.2385 85.5417H69.3308L69.2745 78.6471C69.2182 72.0846 69.1994 71.733 68.8055 70.7174C67.8675 68.3151 65.8602 66.1666 64.0405 65.6002C63.3839 65.3853 63.3089 65.2877 63.3089 64.7603C63.3277 63.4713 64.2656 61.6939 65.3162 60.9908C65.9728 60.5416 68.6367 59.565 68.768 59.7213C68.8242 59.7994 69.5371 61.5767 70.325 63.6666ZM91.3171 60.9908C91.9737 61.4205 92.7428 62.5338 93.0618 63.4127C93.2494 63.9986 93.3056 66.4205 93.3244 74.8385V85.5417H91.7298H90.1352V77.5534C90.1352 69.7799 90.1165 69.5651 89.7413 69.0572C89.1973 68.3346 88.0717 68.3346 87.5276 69.0572C87.1525 69.5651 87.1337 69.7799 87.1337 77.5534V85.5417H84.301C82.1061 85.5417 81.5058 85.4831 81.6184 85.2878C81.7122 85.1706 82.0123 84.7018 82.2937 84.2917C82.5939 83.862 82.819 83.2761 82.819 82.9245C82.8377 82.5925 82.4438 79.4088 81.956 75.8737L81.0931 69.4283L81.6184 68.5885C82.1999 67.6705 82.1999 67.6705 82.7064 68.0611C83.2317 68.4713 83.8508 68.4127 84.3948 67.9049C84.7887 67.5338 85.858 64.9947 87.7152 60.0142L87.8653 59.565L89.3661 60.1119C90.1728 60.4244 91.0545 60.815 91.3171 60.9908ZM49.3329 60.4439C49.952 60.4439 50.9088 60.3658 51.4528 60.2877L52.4283 60.1314V61.7525V63.3541L50.9838 65.6588C50.1771 66.9283 49.483 67.9635 49.4267 67.9635C49.3705 67.9635 48.6388 66.8502 47.7946 65.5221L46.2376 63.0807V61.5963V60.1119L47.2319 60.2877C47.7571 60.3658 48.7139 60.4439 49.3329 60.4439ZM10.5754 64.6822C11.4384 66.9479 12.3013 68.9596 12.5077 69.1744C12.9392 69.6236 13.9147 69.6236 14.4024 69.1744C14.7588 68.8619 14.7776 68.8619 14.984 69.2135C15.0965 69.4088 15.3779 69.819 15.603 70.0924L16.0157 70.6197L15.0778 77.3385C14.5712 81.0299 14.1585 84.3112 14.1585 84.6237C14.1585 85.0143 14.4212 85.5807 14.9089 86.2448C15.3216 86.8112 15.6593 87.3386 15.6593 87.3972C15.6593 87.4558 14.3086 87.4948 12.6578 87.4948H9.65621V79.2135V70.9127L9.22474 70.3854C8.60567 69.6627 7.7052 69.6627 7.08613 70.3854L6.65466 70.9127V79.2135V87.4948H4.96629H3.25916L3.31544 76.1081C3.37171 64.7799 3.37171 64.7408 3.78443 63.9205C4.44102 62.6705 5.64164 61.7135 7.33001 61.108C8.13667 60.815 8.84954 60.5611 8.90582 60.5611C8.9621 60.5611 9.71249 62.3971 10.5754 64.6822ZM30.592 61.2056C32.5805 61.9478 33.8374 63.3346 34.1376 65.0533C34.2689 65.7564 34.2314 65.7955 33.2184 66.4986C32.0365 67.2994 31.1173 68.3932 30.4795 69.7213C29.5978 71.5182 29.5415 72.1041 29.5415 80.0143V87.4948H25.6957H21.85L22.7129 86.1862C23.2757 85.3268 23.5384 84.7604 23.4821 84.487C23.4258 84.2526 22.9756 81.0885 22.4878 77.4362L21.6061 70.7955L22.0939 70.0533C22.3565 69.6432 22.6004 69.2135 22.6379 69.0963C22.6942 68.9401 22.863 68.9791 23.1632 69.194C23.726 69.6041 24.4576 69.6236 24.9829 69.233C25.3018 68.9986 26.7088 65.6393 28.4347 60.9713C28.6222 60.4635 28.5847 60.4635 30.592 61.2056ZM79.3484 64.6432C79.8174 65.151 79.8549 65.3072 79.7049 65.776C79.536 66.2838 79.461 66.3033 78.3167 66.3033C77.1723 66.3033 77.0973 66.2838 76.9284 65.776C76.7784 65.3072 76.8159 65.151 77.2849 64.6432C77.6225 64.2916 78.0165 64.0572 78.3167 64.0572C78.6168 64.0572 79.0108 64.2916 79.3484 64.6432ZM20.2367 67.026C19.974 67.5338 19.899 67.5729 18.7734 67.5729C17.6291 67.5729 17.5728 67.5533 17.3477 66.9869C17.1226 66.4205 17.1413 66.3424 17.6291 65.815C18.3982 64.9947 18.9798 64.9752 19.824 65.7955C20.4993 66.44 20.4993 66.4791 20.2367 67.026ZM45.6373 67.8072L47.0255 69.9752L45.6185 71.4205L44.2303 72.8854L43.3298 70.5612C42.8421 69.2916 42.2981 67.8463 42.0917 67.3385L41.754 66.4205L42.8233 66.0299C43.4049 65.8346 43.9864 65.6393 44.0802 65.6393C44.1928 65.6393 44.8869 66.6158 45.6373 67.8072ZM55.9551 66.0299L57.0994 66.44L56.7618 67.3385C56.5554 67.8463 56.0114 69.2916 55.5236 70.5612L54.6232 72.8854L53.235 71.4205L51.828 69.9752L53.2162 67.8072C53.9666 66.6158 54.6419 65.6197 54.6982 65.6197C54.7545 65.6197 55.3173 65.7955 55.9551 66.0299ZM40.6097 71.9674C41.5477 74.4284 42.4669 76.6159 42.6545 76.8112C43.1047 77.2995 44.0802 77.2995 44.7181 76.7916L45.2621 76.3815L45.506 77.0065C45.6373 77.3581 45.9374 77.8073 46.1626 78.0221L46.5565 78.4127L45.5622 85.6393C45.0182 89.6042 44.568 93.1784 44.5492 93.5691C44.5492 94.1159 44.7556 94.5652 45.4872 95.5808L46.4439 96.8699H42.9546H39.4841V87.8659V78.862L38.9401 78.2956C38.2647 77.5924 37.5706 77.5729 36.9515 78.2174L36.4826 78.6862V87.7878V96.8699H34.5128H32.543V84.8972C32.543 71.9088 32.5618 71.7916 33.556 70.4049C34.344 69.3307 35.2819 68.7057 37.1016 68.0416C38.0584 67.7096 38.8463 67.4361 38.865 67.4557C38.865 67.4557 39.6529 69.4869 40.6097 71.9674ZM63.6653 68.8619C64.547 69.4479 65.2224 70.1901 65.7101 71.1862L66.2167 72.1627L66.2729 84.5065L66.3292 96.8699H64.3407H62.3709V87.7878V78.6862L61.9019 78.2174C61.4142 77.6901 60.5887 77.5924 60.101 77.9831C59.3881 78.5495 59.3694 78.862 59.3694 87.9636V96.8699H55.8988H52.4095L53.3663 95.5808C54.0979 94.5652 54.3043 94.1159 54.3043 93.5691C54.2855 93.1784 53.8353 89.6042 53.2912 85.6393L52.297 78.4127L52.6909 78.0221C52.916 77.8073 53.2162 77.3581 53.3475 77.0065L53.5914 76.3815L54.1354 76.7916C54.8108 77.319 55.7112 77.3385 56.1615 76.8307C56.3491 76.6354 57.287 74.4284 58.225 71.9283L59.9509 67.4166L61.5643 67.983C62.4647 68.2955 63.4027 68.6861 63.6653 68.8619ZM79.0483 76.694C79.3859 79.2526 79.7049 81.5964 79.7611 81.9284C79.8362 82.3776 79.7049 82.6901 79.2546 83.2956C78.9357 83.7253 78.5793 84.2136 78.5042 84.3698C78.3167 84.6823 78.2979 84.6628 77.2849 83.1784L76.7971 82.4753L77.51 77.2604C77.9039 74.4088 78.2604 72.0651 78.3167 72.0651C78.3729 72.0651 78.7106 74.1549 79.0483 76.694ZM50.5898 73.1784L51.3777 74.0182L51.0588 74.7018L50.7399 75.3854H49.4267H48.1136L47.7946 74.7018L47.4757 74.0182L48.2636 73.1784C48.6951 72.7291 49.2204 72.3385 49.4267 72.3385C49.6331 72.3385 50.1584 72.7291 50.5898 73.1784ZM19.5988 78.4127C20.0116 81.401 20.3492 83.9401 20.3492 84.0573C20.3492 84.3307 18.9985 86.3034 18.8297 86.3229C18.7547 86.3229 18.3607 85.8542 17.9292 85.2682L17.1601 84.194L17.948 78.5299C18.3795 75.4049 18.7547 72.8854 18.7922 72.9049C18.8109 72.944 19.1861 75.4245 19.5988 78.4127ZM50.4022 86.7331L51.3027 93.2175L50.421 94.448C49.9332 95.1316 49.483 95.698 49.4267 95.698C49.3705 95.698 48.9202 95.1316 48.4325 94.448L47.5508 93.2175L48.4512 86.7331C48.9202 83.1784 49.3705 80.2682 49.4267 80.2682C49.483 80.2682 49.9332 83.1784 50.4022 86.7331Z" fill="#FF0068"/>
<path d="M48.3018 7.80688V9.36938H49.8025H51.3033V7.80688V6.24437H49.8025H48.3018V7.80688Z" fill="#FF0068"/>
<path d="M54.3047 7.80688V9.36938H55.8055H57.3062V7.80688V6.24437H55.8055H54.3047V7.80688Z" fill="#FF0068"/>
<path d="M60.3076 7.80688V9.36938H61.8084H63.3092V7.80688V6.24437H61.8084H60.3076V7.80688Z" fill="#FF0068"/>
<path d="M66.311 7.80688V9.36938H67.8118H69.3126V7.80688V6.24437H67.8118H66.311V7.80688Z" fill="#FF0068"/>
<path d="M72.314 7.80688V9.36938H73.8147H75.3155V7.80688V6.24437H73.8147H72.314V7.80688Z" fill="#FF0068"/>
<path d="M78.3169 7.80688V9.36938H79.8177H81.3184V7.80688V6.24437H79.8177H78.3169V7.80688Z" fill="#FF0068"/>
<path d="M48.3018 14.0569V15.6194H49.8025H51.3033V14.0569V12.4944H49.8025H48.3018V14.0569Z" fill="#FF0068"/>
<path d="M54.3047 14.0569V15.6194H55.8055H57.3062V14.0569V12.4944H55.8055H54.3047V14.0569Z" fill="#FF0068"/>
<path d="M60.3076 14.0569V15.6194H61.8084H63.3092V14.0569V12.4944H61.8084H60.3076V14.0569Z" fill="#FF0068"/>
<path d="M66.311 14.0569V15.6194H67.8118H69.3126V14.0569V12.4944H67.8118H66.311V14.0569Z" fill="#FF0068"/>
<path d="M72.314 14.0569V15.6194H73.8147H75.3155V14.0569V12.4944H73.8147H72.314V14.0569Z" fill="#FF0068"/>
<path d="M78.3169 14.0569V15.6194H79.8177H81.3184V14.0569V12.4944H79.8177H78.3169V14.0569Z" fill="#FF0068"/>
<path d="M48.3018 20.3071V21.8696H49.8025H51.3033V20.3071V18.7446H49.8025H48.3018V20.3071Z" fill="#FF0068"/>
<path d="M54.3047 20.3071V21.8696H55.8055H57.3062V20.3071V18.7446H55.8055H54.3047V20.3071Z" fill="#FF0068"/>
<path d="M60.3076 20.3071V21.8696H61.8084H63.3092V20.3071V18.7446H61.8084H60.3076V20.3071Z" fill="#FF0068"/>
<path d="M66.311 20.3071V21.8696H67.8118H69.3126V20.3071V18.7446H67.8118H66.311V20.3071Z" fill="#FF0068"/>
<path d="M72.314 20.3071V21.8696H73.8147H75.3155V20.3071V18.7446H73.8147H72.314V20.3071Z" fill="#FF0068"/>
<path d="M78.3169 20.3071V21.8696H79.8177H81.3184V20.3071V18.7446H79.8177H78.3169V20.3071Z" fill="#FF0068"/>
<path d="M48.3018 26.5571V28.1196H49.8025H51.3033V26.5571V24.9946H49.8025H48.3018V26.5571Z" fill="#FF0068"/>
<path d="M54.3047 26.5571V28.1196H55.8055H57.3062V26.5571V24.9946H55.8055H54.3047V26.5571Z" fill="#FF0068"/>
<path d="M60.3076 26.5571V28.1196H61.8084H63.3092V26.5571V24.9946H61.8084H60.3076V26.5571Z" fill="#FF0068"/>
<path d="M18.2861 14.0569V15.6194H19.7869H21.2877V14.0569V12.4944H19.7869H18.2861V14.0569Z" fill="#FF0068"/>
<path d="M24.2891 14.0569V15.6194H25.7898H27.2906V14.0569V12.4944H25.7898H24.2891V14.0569Z" fill="#FF0068"/>
<path d="M30.292 14.0569V15.6194H31.7928H33.2935V14.0569V12.4944H31.7928H30.292V14.0569Z" fill="#FF0068"/>
<path d="M36.2954 14.0569V15.6194H37.7962H39.297V14.0569V12.4944H37.7962H36.2954V14.0569Z" fill="#FF0068"/>
<path d="M18.2861 20.3071V21.8696H19.7869H21.2877V20.3071V18.7446H19.7869H18.2861V20.3071Z" fill="#FF0068"/>
<path d="M24.2891 20.3071V21.8696H25.7898H27.2906V20.3071V18.7446H25.7898H24.2891V20.3071Z" fill="#FF0068"/>
<path d="M30.292 20.3071V21.8696H31.7928H33.2935V20.3071V18.7446H31.7928H30.292V20.3071Z" fill="#FF0068"/>
<path d="M36.2954 20.3071V21.8696H37.7962H39.297V20.3071V18.7446H37.7962H36.2954V20.3071Z" fill="#FF0068"/>
<path d="M30.292 26.5571V28.1196H31.7928H33.2935V26.5571V24.9946H31.7928H30.292V26.5571Z" fill="#FF0068"/>
<path d="M36.2954 26.5571V28.1196H37.7962H39.297V26.5571V24.9946H37.7962H36.2954V26.5571Z" fill="#FF0068"/>
</svg>
