<svg width="100" height="100" viewBox="0 0 100 100" fill="none" xmlns="http://www.w3.org/2000/svg">
<path d="M79.6875 4.707C77.3828 4.96091 75.4688 5.87888 73.6914 7.63669C71.6211 9.68747 70.7031 12.0117 70.7031 15.2539C70.7031 17.4414 70.6445 17.5195 68.8672 18.0664C65.8203 19.0234 63.0273 21.9531 62.207 25.0976C61.8359 26.5429 61.8359 29.0625 62.207 30.4492C63.4375 35.0976 68.125 38.457 72.7539 38.0273L74.0234 37.9101V40.7617C74.0234 43.9648 74.2578 44.8437 75.3906 45.664L75.9766 46.1133V68.6914C75.9766 85.4297 76.0352 91.4648 76.2109 92.0312C76.5039 93.0273 77.7148 94.3945 78.7695 94.9023C79.9609 95.4883 81.8164 95.4492 83.125 94.8437C84.8047 94.0625 85.9375 92.2265 85.9375 90.293V89.4531H91.4062C97.5 89.4531 97.9297 89.375 98.6328 88.2422C98.9844 87.6562 99.0234 87.2656 99.0234 84.3555C99.0234 81.3086 99.0039 81.0742 98.5742 80.4492C97.9688 79.5312 97.168 79.3164 94.3945 79.3164L91.9922 79.2969V77.9297V76.5625H94.4336C97.2461 76.5625 98.0273 76.3476 98.6328 75.3515C98.9844 74.7656 99.0234 74.375 99.0234 71.4648C99.0234 68.4179 99.0039 68.1836 98.5742 67.5586C97.8711 66.5039 97.3828 66.4258 91.3672 66.4258L85.9375 66.4062V62.207C85.9375 57.9883 85.9375 57.9883 85.4492 57.5195C84.8438 56.8945 84.1016 56.8945 83.4961 57.5195L83.0078 57.9883V74.414C83.0078 86.1328 82.9492 90.9765 82.793 91.2695C82.4219 92.0117 81.7969 92.3828 80.8984 92.3828C80.2148 92.3828 79.9414 92.2656 79.4727 91.8164L78.9062 91.25V68.8672V46.4844H80.957H83.0078V49.3164C83.0078 52.0898 83.0273 52.1875 83.4961 52.6367C84.1016 53.2617 84.8438 53.2617 85.4492 52.6367C85.918 52.1875 85.9375 52.0898 85.9375 49.1601V46.1328L86.6992 45.3711C87.6953 44.375 87.8906 43.5937 87.8906 40.5273V37.9883L89.9023 37.9687C91.4062 37.9492 92.1875 37.832 93.0469 37.5195C100.234 34.9414 102.305 25.9765 96.9727 20.5859C95.7617 19.3554 94.3164 18.4961 92.4414 17.8906C91.875 17.6953 91.3477 17.4609 91.2891 17.3437C91.2109 17.2461 91.1328 16.1718 91.1133 14.9804C91.0742 13.3398 90.957 12.5 90.6445 11.6406C88.9258 6.87497 84.707 4.19919 79.6875 4.707ZM83.6328 8.08591C85.6055 8.90622 86.9531 10.2539 87.793 12.3047C88.0664 12.9687 88.1641 13.75 88.1836 15.4297C88.2031 17.3242 88.2812 17.8125 88.6328 18.4961C89.1797 19.5703 90.1172 20.2539 91.6211 20.7031C94.1797 21.4844 95.9375 23.2031 96.6992 25.664C97.793 29.1797 96.0742 32.9297 92.6172 34.5312C91.6797 34.9804 91.2305 35.0586 89.7461 35.0586C88.1055 35.0586 87.8906 35 86.3477 34.2773L84.6875 33.4961H80.957H77.2266L75.8398 34.1406C73.1836 35.3711 71.0352 35.4297 68.8086 34.3554C67.5391 33.75 66.0938 32.2656 65.4688 30.8984C65 29.9023 64.9414 29.5508 64.9414 27.7344C64.9414 25.8789 65 25.5859 65.4883 24.6484C66.543 22.6562 67.9102 21.4844 70.1758 20.7226C71.7383 20.1758 72.3828 19.7461 73.0078 18.8672C73.4961 18.1445 73.5352 17.9297 73.6523 15.4492C73.75 13.0664 73.8086 12.6953 74.2773 11.7578C75.7031 9.00388 77.9102 7.63669 80.957 7.63669C82.1484 7.63669 82.7734 7.73434 83.6328 8.08591ZM84.375 36.6211L84.9609 36.9336V40C84.9609 42.1484 84.8828 43.164 84.7266 43.3203C84.3945 43.6523 77.5195 43.6523 77.1875 43.3203C77.0312 43.164 76.9531 42.1289 76.9531 39.9219V36.7578L77.5 36.5625C77.793 36.4453 79.3359 36.3476 80.918 36.3476C83.1445 36.3281 83.9453 36.3867 84.375 36.6211ZM89.0625 77.9297V86.5234H87.5H85.9375V77.9297V69.3359H87.5H89.0625V77.9297ZM96.0938 71.4844V73.6328H94.043H91.9922V71.4844V69.3359H94.043H96.0938V71.4844ZM96.0938 84.375V86.5234H94.043H91.9922V84.375V82.2265H94.043H96.0938V84.375Z" fill="#FF0068"/>
<path d="M79.5898 15.4687C78.1054 15.9961 77.4804 16.8164 76.4648 19.6289C76.1328 20.5469 75.039 21.7969 73.0664 23.5351C71.2695 25.0976 71.5234 28.125 73.5742 29.5703L74.3749 30.1172L80.8007 30.1367C87.9101 30.1367 87.8515 30.1562 89.0234 28.8281C90.0585 27.6367 90.2734 25.8203 89.5507 24.414C89.3945 24.1211 88.8085 23.4961 88.2421 23.0469C86.3671 21.5234 85.6835 20.5859 84.9414 18.418C84.4335 16.914 83.8671 16.2305 82.7343 15.7031C81.6796 15.2148 80.5664 15.1367 79.5898 15.4687ZM81.8164 18.6719C82.0507 18.9648 82.2265 19.3164 82.2265 19.4726C82.2265 20 83.3593 22.1875 84.1601 23.2031C84.6093 23.7695 85.4101 24.5508 85.9374 24.9219C87.0117 25.6836 87.2656 26.1914 86.8749 26.7969C86.621 27.168 86.4453 27.1875 80.8789 27.1875C74.7656 27.1875 74.8046 27.1875 74.8046 26.2305C74.8046 25.9375 75.1757 25.5273 75.9374 24.9219C77.6367 23.5742 79.0234 21.5625 79.6874 19.4336C80.0976 18.0859 81.0937 17.7344 81.8164 18.6719Z" fill="#FF0068"/>
<path d="M28.6912 4.88281C22.6366 5.97656 17.2069 9.53125 13.9647 14.5312C12.1873 17.2656 11.3475 19.3555 10.7225 22.5195C10.3905 24.1992 10.3514 25.332 10.3514 32.0312V39.6484H7.51936C5.17561 39.6484 4.53108 39.707 3.65218 40.0391C2.42171 40.5078 1.09358 41.7383 0.507645 42.9688C0.097489 43.8477 0.097489 43.9062 0.0388952 67.1484C0.019364 82.1094 0.0584265 90.7227 0.195145 91.1719C0.663895 92.9297 2.28499 94.6484 3.98421 95.1758C4.58968 95.3516 7.83186 95.4102 17.1092 95.4102C28.9647 95.4102 29.4725 95.3906 29.8631 95.0391C30.1366 94.7852 30.2733 94.4336 30.2733 93.9453C30.2733 92.5195 31.0155 92.5977 17.285 92.5391C5.39046 92.4805 4.96077 92.4609 4.31624 92.0898C3.96468 91.875 3.49593 91.3867 3.30061 91.0156C2.94905 90.3711 2.92952 89.4141 2.92952 67.4805C2.92952 45.0195 2.92952 44.6094 3.32015 43.9844C3.53499 43.6328 3.98421 43.1836 4.33577 42.9688C4.9803 42.5781 5.39046 42.5781 32.3436 42.5781H59.7069L60.3709 43.0273C61.8162 43.9844 61.7186 42.1875 61.7186 67.5391C61.7186 92.8516 61.8162 91.1523 60.3709 92.0312L59.6678 92.4805L47.3631 92.5391C33.6326 92.5977 34.3748 92.5195 34.3748 93.9453C34.3748 94.4336 34.5116 94.7852 34.785 95.0391C35.1756 95.3906 35.6834 95.4102 47.6366 95.4102C59.0428 95.4102 60.1366 95.3711 60.9178 95.0586C62.2459 94.5312 63.3787 93.4961 64.0037 92.2266L64.5506 91.1133L64.6092 67.8906C64.6678 41.2109 64.785 43.2812 62.9295 41.4062C61.3866 39.8828 60.6444 39.6484 57.1092 39.6484H54.3162L54.2576 31.3867C54.1795 23.2227 54.1795 23.125 53.6717 21.25C51.8944 14.6875 47.5194 9.43359 41.4842 6.60156C38.6131 5.25391 36.6991 4.84375 32.91 4.78516C31.0936 4.74609 29.1795 4.78516 28.6912 4.88281ZM35.6639 7.83203C40.2537 8.63281 44.6483 11.3281 47.4608 15.0781C49.1405 17.3047 49.9412 18.9453 50.8397 21.9727C51.2108 23.2422 51.2498 23.9648 51.3084 31.4844L51.3866 39.6484H49.3358H47.2655V32.5391C47.2655 24.7461 47.1678 23.6719 46.1522 21.0547C44.7069 17.3828 41.6209 14.2773 37.8905 12.7539C34.9803 11.582 30.8983 11.4062 28.0272 12.3047C24.0037 13.5742 20.7616 16.3281 18.9647 20C17.5194 22.9297 17.5194 23.0078 17.4412 31.7773L17.3631 39.6484H15.3123H13.2616L13.3201 31.4844C13.3983 23.8477 13.4178 23.2422 13.828 21.8164C15.8006 14.7266 21.4647 9.35547 28.5155 7.91016C30.078 7.59766 34.0819 7.53906 35.6639 7.83203ZM35.1366 14.9414C39.0233 15.8594 42.4608 19.0625 43.7889 23.0469C44.1991 24.2578 44.2186 24.707 44.2967 31.9727L44.3553 39.6484H32.3436H20.3123V32.4609C20.3123 25.9375 20.3514 25.1172 20.703 23.75C21.8358 19.2773 25.3123 15.8789 29.785 14.8633C31.0155 14.5898 33.7694 14.6289 35.1366 14.9414Z" fill="#FF0068"/>
<path d="M30.6637 52.7344C27.9098 53.3203 25.4294 55.5664 24.5114 58.3008C24.1012 59.5313 24.0817 61.7578 24.4919 63.1445C24.8825 64.5117 26.1716 66.4453 27.1677 67.1289C27.5778 67.4414 27.9294 67.832 27.9294 68.0078C27.9294 68.2031 27.2262 70.2734 26.3473 72.5977C25.0973 75.9961 24.7848 77.0117 24.863 77.5977C24.9802 78.5352 25.4294 79.1992 26.2302 79.6875C26.8161 80.0586 27.2458 80.0781 32.3239 80.0781C38.613 80.0781 38.7497 80.0391 39.4919 78.3984C39.9802 77.2461 39.9802 77.1875 38.1833 72.3438C36.7966 68.5938 36.5036 67.5781 36.8942 67.5781C37.3044 67.5781 39.1208 65.4492 39.6872 64.2969C40.2341 63.1836 40.3317 62.7734 40.3903 61.1523C40.4489 59.5898 40.3903 59.082 40.0387 58.1641C38.8083 54.9023 36.1716 52.8711 32.8512 52.6563C32.1286 52.5977 31.152 52.6367 30.6637 52.7344ZM34.5505 56.0547C36.5036 57.0508 37.4997 58.6328 37.4997 60.7227C37.4997 62.4805 36.8942 63.7109 35.488 64.9414C33.2809 66.8359 33.2614 67.5195 35.2341 72.832C36.0544 75.0391 36.7184 76.8945 36.7184 76.9922C36.7184 77.0703 34.7067 77.1484 32.2458 77.1484H27.7927L29.3161 73.0273C31.4059 67.4219 31.4059 67.1289 29.0427 64.8047C27.4606 63.2227 27.1481 62.5391 27.1481 60.6641C27.1481 58.3008 28.7887 56.25 31.113 55.6445C32.0114 55.4102 33.7106 55.6055 34.5505 56.0547Z" fill="#FF0068"/>
</svg>
