<svg width="100" height="100" viewBox="0 0 100 100" fill="none" xmlns="http://www.w3.org/2000/svg">
<g clip-path="url(#clip0_56_27)">
<path d="M21.3867 0.351562C21.0742 0.566406 17.3047 4.23828 13.0469 8.51562C7.85154 13.75 5.25388 16.4844 5.15623 16.8555C4.96092 17.7148 5.21482 18.5547 6.09373 19.707C7.12888 21.0742 8.63279 23.9648 9.16013 25.5859C10.1758 28.75 10.4101 32.9492 9.86326 37.5C9.68748 38.8281 9.16013 41.9922 8.67185 44.5117C6.77732 54.2969 6.77732 54.2773 6.75779 59.668C6.73826 64.9219 6.85545 65.9375 7.92966 69.4141C10.4101 77.3633 17.3633 84.6289 28.4961 90.8789C33.4375 93.6523 40.1562 96.6016 47.2265 99.1406C48.5547 99.6094 49.8437 100 50.0976 100C50.664 100 55.1562 98.3789 59.4726 96.6406C79.082 88.6523 89.9219 79.1992 92.7344 67.5781C93.4179 64.7656 93.6133 62.3438 93.4961 58.6133C93.3789 54.8828 93.0469 52.5586 91.7187 45.7227C90.2148 38.0078 90.1367 37.4219 90.1367 32.8125C90.1367 28.8281 90.1562 28.5156 90.664 26.6992C91.3672 24.2383 92.2851 22.2266 93.6523 20.293C94.9609 18.4375 95.1758 17.8906 95.0195 16.9922C94.9219 16.4062 93.6719 15.0781 87.0508 8.4375C82.7344 4.10156 78.9648 0.429688 78.6719 0.273438C77.3242 -0.429688 76.1914 0.117188 74.7851 2.10938C73.4375 4.0625 70.9179 6.67969 69.4531 7.67578C65.8398 10.1367 62.3828 10 58.2617 7.28516C56.914 6.40625 54.0625 3.71094 52.7148 2.03125C51.6406 0.722656 51.1133 0.390625 50.0781 0.390625C49.0625 0.390625 48.457 0.800781 47.3047 2.20703C45.957 3.88672 43.3008 6.38672 41.914 7.30469C35.9179 11.2891 30.9961 9.74609 25.3125 2.08984C24.7461 1.30859 24.1406 0.566406 23.9648 0.410156C23.3984 -0.0390625 22.0508 -0.078125 21.3867 0.351562ZM23.3398 7.63672C25 9.66797 27.6953 11.8945 29.8047 12.9492C32.0117 14.0625 33.3008 14.3555 36.0351 14.3555C38.1836 14.3555 38.789 14.2773 39.9414 13.9062C42.9297 12.9102 45.625 11.1523 48.457 8.37891C49.3164 7.53906 50.0586 6.83594 50.0976 6.83594C50.1367 6.83594 50.664 7.36328 51.289 8.00781C53.3984 10.2148 56.4258 12.3828 58.8476 13.3984C62.4414 14.9219 66.6211 14.7656 70.2148 13.0078C72.4023 11.9141 74.414 10.2734 76.8164 7.61719L77.9492 6.36719L83.6133 12.0312L89.2969 17.7148L88.8086 18.4961C86.0156 22.9102 84.8242 27.793 85.0195 33.8867C85.1562 37.5977 85.3711 39.2969 86.6406 45.8008C87.1289 48.2617 87.6953 51.3477 87.8906 52.6562C89.6094 63.125 88.0078 70.0977 82.3828 76.5625C77.8711 81.7383 70.1172 86.7383 59.8633 91.0547C55.6445 92.832 50.4101 94.8047 50 94.7656C49.8437 94.7656 48.2226 94.1797 46.3867 93.4961C36.6601 89.8438 29.2773 86.0742 23.75 81.9727C20.957 79.9023 17.3047 76.2891 15.8594 74.1602C12.5586 69.3555 11.1719 63.7305 11.6797 57.3633C11.914 54.4531 12.4023 51.5039 13.6719 45.0195C14.6289 40.0586 15.0195 37.3242 15.1562 34.1016C15.4297 28.4961 14.2578 23.3789 11.6992 19.1016L10.8984 17.7344L16.5234 12.0898C19.6289 8.98438 22.207 6.44531 22.2656 6.44531C22.3242 6.44531 22.8125 6.99219 23.3398 7.63672Z" fill="#FF0068"/>
<path d="M48.672 26.5624C48.1056 26.914 47.6173 27.7929 45.1759 32.7734C43.6134 35.957 42.3048 38.6132 42.2657 38.6523C42.2267 38.6913 39.2774 39.1406 35.7032 39.6679C28.6329 40.7031 28.5157 40.7421 27.8516 42.0702C27.129 43.5351 27.2462 43.7109 32.5782 48.9452L37.3829 53.6523L36.2696 60.2148C35.2149 66.3866 35.1563 66.8163 35.4298 67.4609C35.586 67.8515 36.0157 68.3398 36.3673 68.5546C37.6368 69.3359 38.047 69.1991 44.2384 65.9179C47.4024 64.2577 50.0392 62.8906 50.0782 62.8906C50.1368 62.8906 52.7735 64.2577 55.9376 65.9179C62.0118 69.121 62.461 69.2773 63.672 68.6523C64.3946 68.2812 64.8438 67.4413 64.8438 66.4843C64.8438 66.0741 64.3946 63.164 63.8477 59.9999C63.3204 56.8359 62.8907 54.0624 62.9298 53.8281C62.9688 53.5937 64.922 51.5429 67.4806 49.0429C70.2735 46.3085 72.1095 44.3749 72.3243 43.9062C72.9493 42.5585 72.1876 41.0351 70.6837 40.6249C70.3126 40.5273 67.4806 40.0976 64.3556 39.6484C61.2501 39.2187 58.5157 38.8085 58.3009 38.7695C57.9884 38.7109 57.1876 37.2656 54.9806 32.7929C51.8165 26.3866 51.6602 26.1718 50.0977 26.1718C49.6485 26.1718 49.0235 26.3476 48.672 26.5624ZM54.9024 43.0273C55.2931 43.3007 56.5821 43.5741 59.8829 44.0624C62.3438 44.414 64.4532 44.7265 64.5509 44.7265C64.6681 44.7265 63.1837 46.2499 61.2892 48.1054C58.8673 50.4491 57.7931 51.6406 57.6759 52.0507C57.5977 52.4218 57.8126 54.2577 58.3204 57.2851C58.7501 59.8437 59.0626 61.8945 59.004 61.8749C58.9454 61.8359 57.0704 60.8788 54.8634 59.707C51.8165 58.1249 50.6446 57.6171 50.0977 57.6171C49.5509 57.6171 48.3399 58.1445 45.1759 59.7851C41.4845 61.6991 41.0157 61.8945 41.0938 61.4843C41.6407 59.082 42.5782 52.7343 42.4806 52.1679C42.3829 51.6015 41.7384 50.8788 38.9454 48.164C37.0704 46.3476 35.5665 44.8437 35.6056 44.8046C35.6446 44.7656 37.7149 44.4335 40.2345 44.0624C43.5352 43.5741 44.9415 43.2812 45.2931 43.0273C45.6251 42.7929 46.5821 41.1132 47.9493 38.4179L50.0977 34.1796L52.2462 38.4179C53.6524 41.1913 54.5704 42.7929 54.9024 43.0273Z" fill="#FF0068"/>
</g>
<defs>
<clipPath id="clip0_56_27">
<rect width="100" height="100" fill="white"/>
</clipPath>
</defs>
</svg>
